<?xml version="1.0" encoding="UTF-8"?>
<svg version="1.1" xmlns="http://www.w3.org/2000/svg" width="512" height="512">
<path d="M0 0 C50.06428118 17.11871934 103.16596108 13.57018839 152.82739258 -2.546875 C153.49166763 -2.76245056 154.15594269 -2.97802612 154.84034729 -3.20013428 C156.65060531 -3.79060766 158.45868255 -4.3877549 160.26660156 -4.98535156 C165.82089286 -6.68671318 170.6015308 -7.12994897 176.375 -6.9375 C178.01127727 -5.30122273 177.77907321 -3.50505367 177.9375 -1.25 C177.90390891 3.48634364 177.90390891 3.48634364 175.80078125 5.77734375 C174.40097528 6.73987699 172.98025304 7.67250871 171.54296875 8.578125 C165.82945448 12.49008071 161.67699912 19.29425665 160.375 26.0625 C158.70507049 44.47295747 167.58208091 60.39197414 178.97265625 74.49609375 C185.32342956 81.58985446 192.26014762 85.04117442 201.796875 86.41015625 C207.67869722 86.65001779 212.84391466 84.87783057 218.375 83.0625 C222.22422308 81.95214719 223.75446666 81.85565555 227.5625 83.125 C231.75762239 86.23611143 231.68730973 91.63774397 232.546875 96.4453125 C234.24777979 103.87473625 238.38561931 110.11931512 244.38671875 114.81640625 C249.9920114 118.32934998 255.87081038 120.10905566 262.375 121.0625 C268.1336118 137.73958065 272.46694132 152.38685664 264.75 169.1875 C259.68567544 178.70598953 252.43932964 185.08239986 242.375 189.0625 C234.62307899 191.16332152 227.05584657 191.34811485 219.06680298 191.32319641 C217.75590521 191.32702196 216.44500745 191.33084751 215.0943855 191.33478898 C211.48021064 191.34502107 207.86613551 191.34289947 204.25195265 191.33860838 C200.34455784 191.33613242 196.43718651 191.34516608 192.52980042 191.35264587 C184.88431069 191.36537065 177.23885611 191.36718935 169.59335758 191.36484561 C163.37658963 191.36305985 157.15983232 191.36481762 150.94306564 191.36907005 C150.05699426 191.36966524 149.17092288 191.37026043 148.25800084 191.37087366 C146.45772796 191.37208545 144.65745507 191.37329959 142.85718219 191.37451603 C125.98858566 191.38538296 109.12000914 191.38323306 92.25141148 191.37713119 C76.83422992 191.37196245 61.41711156 191.38321783 45.9999425 191.40222941 C30.15226808 191.42162137 14.30462355 191.42986144 -1.54306281 191.42610615 C-10.4333966 191.42419622 -19.32367661 191.42666148 -28.2140007 191.44082069 C-35.78223516 191.45275276 -43.35038273 191.45411892 -50.91861843 191.44203053 C-54.77633864 191.43615472 -58.63390007 191.43500627 -62.49160957 191.44703293 C-66.68214323 191.45994487 -70.87230133 191.44939658 -75.06283569 191.4367218 C-76.87366436 191.44778323 -76.87366436 191.44778323 -78.72107542 191.45906812 C-92.30123415 191.37291055 -103.43170141 188.38845507 -113.69140625 179.21484375 C-122.11581218 170.35375155 -125.18027958 159.58598445 -125.00488281 147.63745117 C-124.73803964 142.94624409 -123.60221684 138.79018035 -122.17578125 134.33203125 C-121.91271179 133.4833699 -121.64964233 132.63470856 -121.37860107 131.7603302 C-120.47331357 128.85693281 -119.550652 125.95946665 -118.625 123.0625 C-118.1136702 121.45311554 -118.1136702 121.45311554 -117.5920105 119.81121826 C-114.87957194 111.28220889 -112.13107782 102.76498859 -109.375 94.25 C-107.88599725 89.64751984 -106.3974148 85.04490378 -104.90926361 80.44214821 C-104.49170518 79.15083806 -104.07402699 77.85956663 -103.65622711 76.56833458 C-101.20558103 68.99343357 -98.77868783 61.41225115 -96.40625 53.8125 C-95.96017818 52.39291674 -95.51390118 50.97339794 -95.06738281 49.55395508 C-94.31237272 47.14531212 -93.56584846 44.7339788 -92.83105469 42.3190918 C-88.80750813 29.55206908 -83.3273833 18.48517496 -73.625 9.0625 C-72.81482422 8.22138672 -72.81482422 8.22138672 -71.98828125 7.36328125 C-51.80168749 -12.00974702 -24.00309709 -8.27537868 0 0 Z " fill="#3890E1" transform="translate(131.625,276.9375)"/>
<path d="M0 0 C18.54433648 16.10969566 32.77407918 40.19829555 35 65 C36.90826821 94.6493613 31.65008898 121.92655057 12 145 C10.92105469 146.30324219 10.92105469 146.30324219 9.8203125 147.6328125 C-5.99945487 166.04229268 -29.7133346 179.31911293 -54 182 C-69.62684324 183.05721675 -85.06920742 183.05567977 -100 178 C-100.94456055 177.68651611 -100.94456055 177.68651611 -101.90820312 177.36669922 C-118.01933379 171.89661798 -131.12146317 163.07793673 -143 151 C-143.83402344 150.1646875 -144.66804688 149.329375 -145.52734375 148.46875 C-164.27468828 128.72795645 -172.56809431 101.88969679 -172.1484375 75.109375 C-171.48010348 51.59716522 -162.7098102 28.56642414 -147 11 C-146.236875 9.989375 -145.47375 8.97875 -144.6875 7.9375 C-140.55555125 3.42118393 -135.82891386 -0.25512802 -131 -4 C-129.84177734 -4.91652344 -129.84177734 -4.91652344 -128.66015625 -5.8515625 C-90.32815888 -34.55141694 -36.01233633 -29.78893045 0 0 Z " fill="#52A6ED" transform="translate(272,69)"/>
<path d="M0 0 C2.23443348 -0.00966869 4.46793236 -0.04067264 6.70214844 -0.07226562 C8.13183049 -0.07879971 9.56151911 -0.08404859 10.99121094 -0.08789062 C12.93592285 -0.10190918 12.93592285 -0.10190918 14.91992188 -0.11621094 C20.10451923 0.39900225 23.33180031 1.97570928 26.86621094 5.77929688 C29.10590893 10.50399311 28.94789431 14.46400683 28.75683594 19.61523438 C28.73878906 20.54207031 28.72074219 21.46890625 28.70214844 22.42382812 C28.65527791 24.69704873 28.58969119 26.96808844 28.50683594 29.24023438 C29.21195312 29.34980469 29.91707031 29.459375 30.64355469 29.57226562 C38.49341878 31.40354361 45.72481868 35.91131965 51.69042969 41.23632812 C53.51050286 42.4550784 53.51050286 42.4550784 55.89355469 42.08789062 C58.8364206 41.13332874 61.22539375 39.82344347 63.88183594 38.24023438 C68.16236235 35.85897639 71.49489715 34.14385094 76.50683594 34.24023438 C85.96379293 37.01210108 89.68031407 44.86639464 94.25683594 52.92773438 C94.99740234 54.20874023 94.99740234 54.20874023 95.75292969 55.515625 C99.20748581 61.53980301 101.19920218 66.1129348 100.50683594 73.24023438 C98.59426094 79.61548438 93.93588233 82.00570585 88.50683594 85.24023438 C87.53746094 85.85898437 86.56808594 86.47773438 85.56933594 87.11523438 C83.50683594 88.24023438 83.50683594 88.24023438 81.50683594 88.24023438 C81.67183594 89.43648438 81.83683594 90.63273437 82.00683594 91.86523438 C82.98312744 100.6797519 82.9102795 109.48541979 81.50683594 118.24023438 C82.38726562 118.75972656 83.26769531 119.27921875 84.17480469 119.81445312 C85.34821161 120.51849728 86.52137584 121.22294605 87.69433594 121.92773438 C88.27248047 122.26740234 88.850625 122.60707031 89.44628906 122.95703125 C94.2063804 125.83460059 98.68252313 128.76729594 100.50683594 134.24023438 C101.47122085 142.72682157 98.61804008 147.80254136 94.31933594 154.99023438 C93.74119141 156.00472656 93.16304687 157.01921875 92.56738281 158.06445312 C84.91399128 171.22655698 84.91399128 171.22655698 78.50683594 173.24023438 C72.63856719 173.76631183 69.71275868 173.13299449 64.82592773 169.9362793 C61.55666905 167.8198623 58.37049419 165.95589655 54.50683594 165.24023438 C49.55722467 166.94664241 46.13139996 169.68081855 42.14404297 172.99121094 C38.39010122 175.85508896 33.85375113 177.47485453 29.50683594 179.24023438 C29.45076172 181.21056641 29.45076172 181.21056641 29.39355469 183.22070312 C29.32787937 184.95640802 29.26143257 186.69208384 29.19433594 188.42773438 C29.17177734 189.29205078 29.14921875 190.15636719 29.12597656 191.046875 C28.85939965 197.37201802 27.85354951 201.01703204 23.13183594 205.49023438 C17.16998619 209.46480087 9.59934193 208.45959652 2.69433594 208.49023438 C1.54384766 208.51085937 0.39335937 208.53148437 -0.79199219 208.55273438 C-14.89386151 208.61738478 -14.89386151 208.61738478 -20.09912109 203.73339844 C-25.56618773 197.34613246 -24.40013706 187.15598683 -24.49316406 179.24023438 C-25.55535156 178.73234375 -26.61753906 178.22445312 -27.71191406 177.70117188 C-29.1400227 177.0079677 -30.5670377 176.31250757 -31.99316406 175.61523438 C-32.72768799 175.2563916 -33.46221191 174.89754883 -34.21899414 174.52783203 C-38.9077909 172.18317348 -42.97419892 169.69004885 -46.81738281 166.07617188 C-48.55507343 164.97515457 -48.55507343 164.97515457 -50.83300781 165.89648438 C-53.7013517 167.34539817 -56.53779785 168.84345306 -59.36816406 170.36523438 C-63.97611214 172.67485541 -67.25966819 174.18226363 -72.49316406 173.24023438 C-80.86371686 170.12179314 -84.40536494 162.44175633 -88.74316406 155.11523438 C-89.57460938 153.78492188 -89.57460938 153.78492188 -90.42285156 152.42773438 C-94.19148061 146.02292145 -95.8347674 140.6731616 -94.49316406 133.24023438 C-92.12401914 128.14015392 -88.63705445 125.60095944 -83.86816406 122.86523438 C-83.28292969 122.51074219 -82.69769531 122.15625 -82.09472656 121.79101562 C-77.80074732 119.24023438 -77.80074732 119.24023438 -75.49316406 119.24023438 C-75.75178223 118.4295752 -75.75178223 118.4295752 -76.015625 117.60253906 C-76.59224326 114.7501064 -76.38448492 112.34243193 -76.13378906 109.44335938 C-74.80773136 98.01614037 -74.80773136 98.01614037 -77.68408203 87.33789062 C-81.06747575 84.27646676 -85.29393683 82.84866566 -89.49316406 81.24023438 C-93.04064213 78.5278769 -94.35076201 75.75120645 -95.55566406 71.42773438 C-96.09727977 63.37463923 -89.96529211 55.16555169 -86.11816406 48.42773438 C-85.66183594 47.59564453 -85.20550781 46.76355469 -84.73535156 45.90625 C-81.2033348 39.72025996 -78.22607575 36.38882259 -71.24316406 34.24023438 C-64.65890644 34.24023438 -59.14770758 37.15906603 -53.61816406 40.55273438 C-50.80060525 42.45127749 -50.80060525 42.45127749 -48.58300781 42.04882812 C-46.00676618 41.05203931 -44.13222131 39.65863031 -41.93066406 37.99023438 C-29.78891149 29.24023438 -29.78891149 29.24023438 -23.49316406 29.24023438 C-23.54537109 27.39558594 -23.54537109 27.39558594 -23.59863281 25.51367188 C-23.62678452 23.88087311 -23.65408319 22.24805947 -23.68066406 20.61523438 C-23.70580078 19.80699219 -23.7309375 18.99875 -23.75683594 18.16601562 C-23.81885286 13.08062776 -23.32943129 9.64249749 -20.49316406 5.24023438 C-14.00798132 -0.61224761 -8.33592705 0.0218504 0 0 Z M-23.47363281 82.63867188 C-30.21029774 91.88943237 -31.56831606 99.84819834 -30.49316406 111.24023438 C-28.13218035 121.00507964 -22.68194776 127.86067172 -14.55566406 133.61132812 C-6.61295809 138.12874215 3.0289773 139.13642793 11.84667969 137.11914062 C21.41692028 133.95716686 29.10451272 127.55471561 33.88964844 118.67382812 C37.47936066 110.05098794 38.10757581 100.76463521 34.88183594 91.92773438 C30.23117022 81.9296133 23.53726505 75.39373031 13.19433594 71.36523438 C-0.49886107 67.38132514 -14.40963461 71.66175886 -23.47363281 82.63867188 Z " fill="#2B85DB" transform="translate(404.4931640625,171.759765625)"/>
</svg>
