<?xml version="1.0" encoding="UTF-8"?>
<svg version="1.1" xmlns="http://www.w3.org/2000/svg" width="512" height="512">
<path d="M0 0 C1.62085197 -0.00270084 3.24170235 -0.00658816 4.86254883 -0.01159668 C8.24478721 -0.01746399 11.62660046 -0.00901907 15.00878906 0.00976562 C19.31923778 0.03255393 23.62868991 0.01941583 27.93910217 -0.00452423 C31.28169101 -0.01905775 34.62404803 -0.0143419 37.96664429 -0.00401306 C39.55488201 -0.00136657 41.14314159 -0.00454142 42.73135376 -0.01393127 C52.50544728 -0.05905246 61.52368639 0.14755036 69.58984375 6.390625 C70.09644531 7.01453125 70.60304688 7.6384375 71.125 8.28125 C71.64964844 8.89484375 72.17429687 9.5084375 72.71484375 10.140625 C77.34899948 17.66344543 77.61820077 24.41734414 77.56845093 33.04966736 C77.5731309 34.29971969 77.57781087 35.54977202 77.58263266 36.83770472 C77.59511244 40.29121902 77.58898621 43.74448341 77.57967401 47.1979984 C77.57287131 50.92882471 77.58337083 54.65960879 77.59161377 58.39042664 C77.6049407 65.69296869 77.6020779 72.99541814 77.59337585 80.29796379 C77.58659509 86.23448869 77.58568428 92.17098767 77.5889473 98.10751534 C77.589407 98.95309345 77.58986669 99.79867156 77.59034032 100.66987326 C77.59129952 102.38777141 77.59227216 104.10566956 77.5932581 105.8235677 C77.60180908 121.92571103 77.59198271 138.02780309 77.575857 154.12993801 C77.56245651 167.93813214 77.56478025 181.7462506 77.57861328 195.55444336 C77.59467844 211.59821889 77.60098257 227.64194949 77.59177649 243.68573195 C77.59082087 245.39754426 77.58987776 247.10935658 77.5889473 248.8211689 C77.58848447 249.66336033 77.58802164 250.50555176 77.58754479 251.37326415 C77.58495753 257.30027016 77.58932026 263.2272476 77.59638596 269.15424919 C77.60481166 276.38080218 77.60249844 283.60725745 77.58654372 290.8337993 C77.57867501 294.51898445 77.57554536 298.20400683 77.58549118 301.88919067 C77.59612053 305.88821766 77.58340386 309.88683589 77.56845093 313.885849 C77.57514309 315.04480665 77.58183526 316.20376429 77.58873022 317.39784187 C77.52914987 325.61457998 76.72373508 333.91120312 70.80078125 340.18359375 C65.14711904 344.90638664 59.57451842 346.75268487 52.25317383 347.15087891 C51.59977178 347.18734842 50.94636972 347.22381794 50.27316761 347.26139259 C39.2312315 347.83870102 28.17014046 347.83461065 17.1159668 347.88134766 C14.27938153 347.89476366 11.44350249 347.92280782 8.60717773 347.96337891 C5.13384264 348.01298994 1.66115304 348.03749657 -1.81252098 348.04457474 C-3.74563562 348.05440702 -5.67857882 348.08853903 -7.61140442 348.12338257 C-16.58371352 348.10193213 -23.48925045 346.45265905 -30.25 340.3203125 C-30.765625 339.60617187 -31.28125 338.89203125 -31.8125 338.15625 C-32.34875 337.44726562 -32.885 336.73828125 -33.4375 336.0078125 C-37.33349288 328.99059806 -37.09872615 322.00839668 -37.07319641 314.17105103 C-37.07702196 312.92593667 -37.08084751 311.68082232 -37.08478898 310.39797723 C-37.09330766 306.9536148 -37.0928909 303.5094664 -37.08860838 300.06511021 C-37.08613853 296.34586024 -37.09515856 292.62663521 -37.10264587 288.90739441 C-37.11538775 281.62545707 -37.1171872 274.34355661 -37.11484561 267.06161 C-37.11306169 261.14175046 -37.11481367 255.22190211 -37.11907005 249.30204391 C-37.11966524 248.45910567 -37.12026043 247.61616743 -37.12087366 246.7476856 C-37.12208542 245.03518292 -37.12329956 243.32268024 -37.12451603 241.61017756 C-37.13538963 225.55431055 -37.13322995 209.49846455 -37.12713119 193.44259636 C-37.12196238 178.76038014 -37.13321684 164.07823026 -37.15222941 149.39602716 C-37.17161038 134.3134803 -37.17986334 119.23096483 -37.17610615 104.14840543 C-37.17419448 95.68345479 -37.17667838 87.21856062 -37.19082069 78.75362015 C-37.20273878 71.54717801 -37.20413461 64.3408271 -37.19203053 57.13438369 C-37.18614478 53.45932719 -37.18503386 49.78443753 -37.19703293 46.10939217 C-37.20990262 42.1212682 -37.19942008 38.13354072 -37.1867218 34.14541626 C-37.19409609 32.98966744 -37.20147037 31.83391862 -37.20906812 30.64314711 C-37.15460144 22.51050674 -36.29670804 14.58315456 -30.75 8.21875 C-30.24339844 7.60386719 -29.73679687 6.98898438 -29.21484375 6.35546875 C-20.42000866 -0.3228857 -10.52362252 -0.06221794 0 0 Z " fill="#54A1FF" transform="translate(419.8125,149.46875)"/>
<path d="M0 0 C0.69696991 -0.00671722 1.39393982 -0.01343445 2.11203003 -0.02035522 C4.39596867 -0.03921529 6.67961157 -0.04325332 8.96362305 -0.04541016 C10.56634131 -0.05184661 12.16905842 -0.05857558 13.77177429 -0.06558228 C17.12473268 -0.07752521 20.47758827 -0.0812662 23.83056641 -0.08007812 C28.10403866 -0.07987515 32.37684433 -0.10716824 36.65015888 -0.14162254 C39.95925356 -0.16397985 43.26819008 -0.16791297 46.57735252 -0.16685867 C48.15165693 -0.16920171 49.72596656 -0.17795122 51.30019569 -0.19352341 C61.21786041 -0.28244428 70.25709603 -0.08176703 78.3190918 6.43896484 C78.9275293 7.17373047 79.5359668 7.90849609 80.1628418 8.66552734 C81.10643555 9.75994141 81.10643555 9.75994141 82.0690918 10.87646484 C85.77710365 16.4930122 85.95409505 21.92526987 85.93026733 28.42416382 C85.93479845 29.33427802 85.93932956 30.24439222 85.94399798 31.18208563 C85.95664119 34.22658551 85.95502165 37.27090649 85.95336914 40.31542969 C85.95935439 42.50035329 85.96615993 44.68527478 85.97372437 46.87019348 C85.99139081 52.80201565 85.99607999 58.73378012 85.99735594 64.66562605 C85.9987776 68.37204685 86.00304747 72.07845299 86.00835037 75.78487015 C86.0258973 88.04917231 86.03519037 100.3134392 86.03368942 112.57775407 C86.03360951 113.23835987 86.0335296 113.89896568 86.03344727 114.57958984 C86.0333655 115.24100545 86.03328374 115.90242105 86.0331995 116.58387955 C86.03243717 126.63621416 86.04803361 136.68842457 86.07446289 146.74072266 C86.10507217 158.42299574 86.1219796 170.10517705 86.12053645 181.78749239 C86.12002655 187.96818815 86.12572558 194.14872483 86.14689255 200.32938766 C86.1662569 206.1423266 86.1664115 211.95495437 86.15185928 217.76790428 C86.14976794 219.89957954 86.15449137 222.03127418 86.1665802 224.16291618 C86.18203219 227.07661727 86.17272452 229.98924536 86.15731812 232.90292358 C86.16760524 233.7432096 86.17789237 234.58349562 86.18849123 235.44924486 C86.11159269 242.04606949 84.26401096 247.20429167 79.98706055 252.27880859 C79.44694336 252.71580078 78.90682617 253.15279297 78.3503418 253.60302734 C77.55176758 254.27785156 77.55176758 254.27785156 76.73706055 254.96630859 C70.52599385 258.93156587 65.52073058 259.72388928 58.2956543 259.61865234 C56.94510704 259.61665833 56.94510704 259.61665833 55.567276 259.61462402 C52.6404683 259.60572038 49.71446067 259.57427389 46.7878418 259.54052734 C44.76481564 259.52590252 42.74178481 259.51191006 40.71875 259.49853516 C35.65316131 259.45942157 30.5881355 259.39755243 25.52288818 259.32763672 C22.83273594 259.29273174 20.14267166 259.26639165 17.45239258 259.24365234 C13.61598497 259.20973396 9.78057061 259.15473834 5.94476318 259.07897949 C4.56387748 259.05362737 3.18287211 259.03404416 1.80181885 259.02062988 C-7.12048831 258.92127662 -13.74083219 258.31831826 -20.5793457 252.32568359 C-27.54809633 243.90649922 -28.49186843 236.25621813 -28.47087097 225.53689575 C-28.47313653 224.67971887 -28.47540208 223.822542 -28.47773629 222.93939006 C-28.48404369 220.08002221 -28.48324903 217.22070215 -28.48242188 214.36132812 C-28.48541537 212.30595845 -28.48881834 210.25058933 -28.49259949 208.19522095 C-28.50142361 202.62082577 -28.50377692 197.04644595 -28.50441527 191.47204447 C-28.5051266 187.98756533 -28.50726248 184.50309008 -28.50991249 181.01861191 C-28.51916018 168.8574575 -28.52324804 156.69631405 -28.52246094 144.53515625 C-28.52186008 133.20680287 -28.53241497 121.87849709 -28.5482046 110.55015576 C-28.56128699 100.81661891 -28.56664455 91.08309761 -28.56600553 81.34955204 C-28.56575078 75.53944593 -28.56858957 69.72938215 -28.57918358 63.91928482 C-28.58887644 58.45441194 -28.58893555 52.98962177 -28.58166695 47.52474594 C-28.58062263 45.52249785 -28.58297487 43.52024458 -28.5890274 41.51800537 C-28.59677193 38.77794906 -28.59208629 36.03817665 -28.58439636 33.29812622 C-28.58953993 32.51201749 -28.59468349 31.72590876 -28.59998292 30.91597855 C-28.54087559 21.33916817 -26.5780131 13.70805894 -20.3371582 6.29052734 C-14.24655176 1.23661987 -7.77074281 0.04734997 0 0 Z " fill="#FFC760" transform="translate(43.337158203125,237.70947265625)"/>
<path d="M0 0 C0.87696533 0.00757324 1.75393066 0.01514648 2.6574707 0.02294922 C13.45604063 0.29703983 21.64771791 3.81361608 30.125 10.4375 C30.74117188 10.91574219 31.35734375 11.39398438 31.9921875 11.88671875 C40.54677887 19.43376936 45.33374838 31.63116251 46.3359375 42.78515625 C46.84041393 55.02841107 42.64356836 67.09796863 35 76.625 C26.75775949 85.41790744 15.77052518 90.53500152 3.83203125 91.78125 C-8.31393455 92.12952142 -17.84325377 89.11374013 -27.875 82.4375 C-29.53733106 81.43030923 -31.20289382 80.42837774 -32.875 79.4375 C-33.69742187 80.13875 -34.51984375 80.84 -35.3671875 81.5625 C-41.32466658 86.63021406 -47.31422785 91.63747122 -53.44140625 96.5 C-61.58228986 102.98134554 -69.57159046 109.65571446 -77.60229492 116.27270508 C-83.34933947 121.00726372 -89.10846913 125.72668786 -94.875 130.4375 C-96.70845036 131.93735696 -98.54178171 133.4373594 -100.375 134.9375 C-107.70833333 140.9375 -115.04166667 146.9375 -122.375 152.9375 C-123.26960938 153.67355469 -124.16421875 154.40960938 -125.0859375 155.16796875 C-127.03357964 156.75281481 -128.99867606 158.31634488 -130.9765625 159.86328125 C-131.97429687 160.65089844 -132.97203125 161.43851563 -134 162.25 C-134.91007812 162.95769531 -135.82015625 163.66539062 -136.7578125 164.39453125 C-138.98862276 166.54713967 -139.66991247 167.39048532 -139.875 170.4375 C-139.56447314 172.74086625 -139.56447314 172.74086625 -138.9375 175.125 C-136.17657339 188.09757297 -138.72045079 200.39063812 -145.796875 211.64453125 C-152.53823484 220.7048175 -162.21783755 227.81856014 -173.43359375 230.15234375 C-188.37704361 231.89773869 -201.38634579 230.07029571 -213.5078125 220.49609375 C-220.2578006 214.62605459 -224.81659623 207.91146099 -227.875 199.4375 C-227.91929113 197.40655937 -227.96220022 195.37529518 -227.96350098 193.34387207 C-228.12657294 189.30037161 -228.70691309 185.90549263 -230.875 182.4375 C-237.62778583 176.95810598 -246.76693031 174.68551101 -254.875 171.9375 C-257.26866483 171.06991457 -259.65977347 170.1952458 -262.04833984 169.3137207 C-266.92142636 167.52232 -271.80474271 165.7646024 -276.69824219 164.02978516 C-283.47693132 161.60742512 -290.17346347 159.01017395 -296.8515625 156.32421875 C-297.8508075 155.92240387 -298.85005249 155.52058899 -299.87957764 155.1065979 C-301.8179268 154.32520353 -303.75586671 153.54279304 -305.69335938 152.75927734 C-310.13602974 150.96381401 -314.58449154 149.18368328 -319.0390625 147.41796875 C-319.79595367 147.11283859 -320.55284485 146.80770844 -321.33267212 146.49333191 C-324.32949235 145.30845168 -326.62129626 144.4375 -329.875 144.4375 C-331.43652959 145.97349388 -331.43652959 145.97349388 -332.9375 148 C-341.05881249 157.5794187 -351.09925004 162.54050554 -363.58203125 163.81640625 C-376.06129203 164.21481725 -387.12385734 161.38700297 -396.875 153.4375 C-397.56207031 152.88578125 -398.24914062 152.3340625 -398.95703125 151.765625 C-406.08634198 145.38605058 -412.2069225 135.07569918 -413.05200195 125.41381836 C-413.50440134 109.64112106 -410.90475529 99.20104901 -401.625 86.3125 C-393.52339587 77.84264114 -382.45762069 72.42916409 -370.73217773 72.14501953 C-356.14888407 72.02116349 -345.02099405 75.63458521 -334.1875 85.6875 C-324.11193323 96.3474964 -321.49813894 108.08682132 -321.671875 122.34765625 C-321.875 125.4375 -321.875 125.4375 -322.875 127.4375 C-322.29057632 127.60013336 -321.70615265 127.76276672 -321.10401917 127.93032837 C-314.23038197 129.9097828 -307.65229295 132.39927399 -301.02734375 135.0859375 C-299.90844757 135.53545776 -298.78955139 135.98497803 -297.63674927 136.44812012 C-294.02711025 137.89908007 -290.41983686 139.35582724 -286.8125 140.8125 C-284.33477031 141.80929976 -281.8568875 142.8057043 -279.37866211 143.80126953 C-278.76466207 144.04793806 -278.15066202 144.29460659 -277.51805592 144.54874992 C-276.90508498 144.79499674 -276.29211405 145.04124355 -275.66056824 145.29495239 C-273.19994538 146.28348831 -270.73950538 147.27247951 -268.2792511 148.26193237 C-258.18188052 152.32112484 -248.06707152 156.33442308 -237.9375 160.3125 C-237.24477997 160.58471375 -236.55205994 160.85692749 -235.83834839 161.13739014 C-232.18474176 162.57291497 -228.5303702 164.00647202 -224.875 165.4375 C-224.41685913 164.2616333 -224.41685913 164.2616333 -223.94946289 163.06201172 C-219.50458132 152.20482542 -209.78693234 145.94539995 -199.453125 141.3828125 C-189.23652169 137.63672462 -175.82465963 138.07147803 -165.875 142.4375 C-160.11003655 145.21499067 -155.04765991 148.69717277 -149.875 152.4375 C-148.55048828 151.29474609 -148.55048828 151.29474609 -147.19921875 150.12890625 C-139.84055825 143.79276868 -132.41785185 137.55422919 -124.875 131.4375 C-123.04096746 129.938355 -121.20764019 128.43834678 -119.375 126.9375 C-116.65118311 124.7075196 -113.92619199 122.47914013 -111.1953125 120.2578125 C-106.26992502 116.24612009 -101.39428632 112.18577919 -96.5625 108.0625 C-92.12638512 104.2796847 -87.60899975 100.63217742 -83 97.0625 C-77.2592803 92.61051329 -71.75212685 87.93418234 -66.28759766 83.14868164 C-61.68917753 79.12491328 -57.00979638 75.22953608 -52.26171875 71.3828125 C-49.08200239 68.79116152 -45.97478033 66.12397628 -42.875 63.4375 C-43.19984375 62.20386719 -43.19984375 62.20386719 -43.53125 60.9453125 C-47.24543231 46.05419268 -46.51263223 33.48840147 -38.59765625 19.97265625 C-29.69473138 6.87061942 -15.67111261 -0.19050267 0 0 Z " fill="#EF6255" transform="translate(439.875,15.5625)"/>
<path d="M0 0 C1.12254936 -0.0098568 1.12254936 -0.0098568 2.26777649 -0.01991272 C4.74533187 -0.03962743 7.22282661 -0.05130578 9.70043945 -0.0612793 C10.54824289 -0.06535482 11.39604633 -0.06943035 12.26954079 -0.07362938 C16.75911846 -0.09448486 21.24866563 -0.1087874 25.73828125 -0.11816406 C30.36400363 -0.1292122 34.9892428 -0.16359492 39.61479473 -0.20333576 C43.18114585 -0.22954906 46.74738282 -0.23786019 50.31382179 -0.24144554 C52.01817898 -0.24630132 53.72253141 -0.25788645 55.42679405 -0.27648354 C65.64802349 -0.38106321 73.18369981 -0.39966334 81.3762207 6.48950195 C86.60964868 12.74054092 88.7388531 18.20013528 88.78012085 26.32327271 C88.78872131 27.58485703 88.79732178 28.84644135 88.80618286 30.14625549 C88.81061776 31.54208333 88.81491615 32.9379116 88.8190918 34.33374023 C88.82699677 35.80577282 88.83526597 37.2778035 88.84387207 38.74983215 C88.87005026 43.58230754 88.88539726 48.41479139 88.8996582 53.24731445 C88.90501994 54.91374593 88.91039745 56.58017736 88.91579056 58.24660873 C88.93741467 65.18148868 88.95614914 72.11636633 88.96741295 79.05127144 C88.98363806 88.97398462 89.01678604 98.89630539 89.0738138 108.81887066 C89.11258464 115.80418778 89.13205417 122.78940026 89.13733351 129.77482212 C89.14097771 133.94251941 89.15289879 138.10979776 89.18543625 142.27737808 C89.21564259 146.20260497 89.22178457 150.12716219 89.21005249 154.0524807 C89.20983279 155.48671028 89.21805182 156.92097207 89.23570633 158.355093 C89.3441538 167.67816594 88.57527962 175.53133742 82.21883202 182.78248787 C76.53234913 187.9435787 70.37531965 189.63045118 62.90600586 189.58105469 C62.16841537 189.58791794 61.43082489 189.59478119 60.67088318 189.60185242 C58.25214949 189.62003259 55.83407003 189.6162952 53.4152832 189.6105957 C51.72048738 189.61516223 50.02569341 189.6204692 48.3309021 189.6264801 C44.78538473 189.63539434 41.2400928 189.63300799 37.69458008 189.62304688 C33.16988457 189.61156829 28.64597081 189.63175989 24.12137794 189.66096401 C20.62272262 189.67938673 17.12425246 189.67902137 13.62556076 189.67332649 C11.95833618 189.67317397 10.29109849 189.67916068 8.62392044 189.69161797 C-1.19227824 189.75463137 -9.65521776 189.7033888 -17.6784668 183.3527832 C-18.19666992 182.73790039 -18.71487305 182.12301758 -19.2487793 181.48950195 C-19.78245117 180.88750977 -20.31612305 180.28551758 -20.8659668 179.6652832 C-25.8333617 171.46779472 -25.80640125 163.04816944 -25.76196289 153.69628906 C-25.76603482 152.24982814 -25.77138018 150.80337033 -25.77789307 149.35691833 C-25.79149747 145.45200149 -25.78629701 141.54732407 -25.77675581 137.64240336 C-25.76912483 133.54354282 -25.77621419 129.44470186 -25.78091431 125.34584045 C-25.78636127 118.46554916 -25.7792075 111.5853547 -25.76489258 104.70507812 C-25.74856158 96.76437817 -25.75386205 88.82390927 -25.77037179 80.88321489 C-25.78400918 74.04897464 -25.78589553 67.21480373 -25.77805579 60.38055426 C-25.77339246 56.30591488 -25.77271748 52.23138393 -25.78266525 48.15675163 C-25.79136577 44.32593719 -25.78525714 40.49541921 -25.76798248 36.66463661 C-25.76403432 35.26345689 -25.76512292 33.86225198 -25.77177048 32.46108246 C-25.81542434 22.3207147 -25.04720445 14.29332984 -18.3737793 6.17700195 C-12.3599304 1.67270217 -7.50517949 0.02858443 0 0 Z " fill="#EE6255" transform="translate(224.373779296875,307.822998046875)"/>
<path d="M0 0 C0.87696533 0.00757324 1.75393066 0.01514648 2.6574707 0.02294922 C13.45604063 0.29703983 21.64771791 3.81361608 30.125 10.4375 C30.74117187 10.91574219 31.35734375 11.39398438 31.9921875 11.88671875 C40.54677887 19.43376936 45.33374838 31.63116251 46.3359375 42.78515625 C46.84041393 55.02841107 42.64356836 67.09796863 35 76.625 C26.75775949 85.41790744 15.77052518 90.53500152 3.83203125 91.78125 C-8.31393455 92.12952142 -17.84325377 89.11374013 -27.875 82.4375 C-29.53733106 81.43030923 -31.20289382 80.42837774 -32.875 79.4375 C-34.10863281 80.489375 -34.10863281 80.489375 -35.3671875 81.5625 C-41.32466658 86.63021406 -47.31422785 91.63747122 -53.44140625 96.5 C-61.58228986 102.98134554 -69.57159046 109.65571446 -77.60229492 116.27270508 C-83.34933947 121.00726372 -89.10846913 125.72668786 -94.875 130.4375 C-96.70845036 131.93735696 -98.54178171 133.4373594 -100.375 134.9375 C-122.375 152.9375 -122.375 152.9375 -125.09765625 155.15625 C-127.0336833 156.74646068 -128.95728482 158.3518684 -130.87109375 159.96875 C-131.84175781 160.7834375 -132.81242187 161.598125 -133.8125 162.4375 C-134.68777344 163.18 -135.56304687 163.9225 -136.46484375 164.6875 C-138.72017687 166.32508385 -140.15427636 167.03349463 -142.875 167.4375 C-143.11734375 166.92960938 -143.3596875 166.42171875 -143.609375 165.8984375 C-145.75298137 161.49579981 -148.06700344 157.44892366 -150.875 153.4375 C-145.34358604 148.35330674 -139.7350013 143.44913352 -133.8359375 138.796875 C-130.00070001 135.74082824 -126.21935376 132.62171381 -122.4375 129.5 C-117.67672214 125.57076512 -112.91220531 121.64705147 -108.125 117.75 C-104.22745917 114.56965371 -100.38901049 111.32729472 -96.5625 108.0625 C-92.12634729 104.27972903 -87.60900152 100.6321788 -83 97.0625 C-77.2592803 92.61051329 -71.75212685 87.93418234 -66.28759766 83.14868164 C-61.68917753 79.12491328 -57.00979638 75.22953608 -52.26171875 71.3828125 C-49.08200239 68.79116152 -45.97478033 66.12397628 -42.875 63.4375 C-43.0915625 62.61507812 -43.308125 61.79265625 -43.53125 60.9453125 C-47.24543231 46.05419268 -46.51263223 33.48840147 -38.59765625 19.97265625 C-29.69473138 6.87061942 -15.67111261 -0.19050267 0 0 Z " fill="#54A1FE" transform="translate(439.875,15.5625)"/>
<path d="M0 0 C9.82363256 7.11060769 16.94677037 16.16383562 19.703125 28.1640625 C22.0044124 42.52855001 19.1965681 55.19080892 11.10546875 67.3046875 C2.58216224 77.40979684 -8.25331214 83.3508096 -21.3828125 84.5 C-33.95354301 84.91300141 -44.97697638 82.20579354 -54.8125 74.1875 C-55.49957031 73.63578125 -56.18664063 73.0840625 -56.89453125 72.515625 C-64.02384198 66.13605058 -70.1444225 55.82569918 -70.98950195 46.16381836 C-71.44190134 30.39112106 -68.84225529 19.95104901 -59.5625 7.0625 C-44.0241592 -9.18212902 -18.89189463 -11.82328305 0 0 Z " fill="#FEC860" transform="translate(97.8125,94.8125)"/>
<path d="M0 0 C37.29 0 74.58 0 113 0 C113 8.25724017 111.99197081 13.39387983 106.578125 19.640625 C100.84972486 24.75306813 94.75909731 26.45351535 87.27978516 26.40405273 C86.54219467 26.41091599 85.80460419 26.41777924 85.04466248 26.42485046 C82.62592879 26.44303064 80.20784932 26.43929324 77.7890625 26.43359375 C76.09426668 26.43816028 74.39947271 26.44346725 72.7046814 26.44947815 C69.15916403 26.45839239 65.6138721 26.45600603 62.06835938 26.44604492 C57.54366387 26.43456634 53.01975011 26.45475794 48.49515724 26.48396206 C44.99650192 26.50238478 41.49803176 26.50201942 37.99934006 26.49632454 C36.33211548 26.49617202 34.66487779 26.50215872 32.99769974 26.51461601 C14.51752397 26.63324634 14.51752397 26.63324634 6.66015625 20.03515625 C0.75054897 12.73845289 0 10.0541846 0 0 Z " fill="#D85750" transform="translate(200,471)"/>
<path d="M0 0 C9.15355759 -0.09279707 18.30695253 -0.16381394 27.46087837 -0.20724869 C31.71171849 -0.22809828 35.9622361 -0.25636734 40.21289062 -0.30175781 C44.31723055 -0.34531017 48.42126083 -0.36915688 52.52581406 -0.37950897 C54.08949532 -0.38688357 55.65316017 -0.40128466 57.21670914 -0.42292023 C59.41193126 -0.45208062 61.60588401 -0.45595097 63.80126953 -0.45410156 C65.04925323 -0.46298401 66.29723694 -0.47186646 67.58303833 -0.48101807 C72.79686225 0.25295081 75.84633004 2.72160896 79.3125 6.5625 C82.18623966 10.71345728 82.33049929 14.04251068 82 19 C81.13669252 21.40660895 80.05969243 23.66867665 79 26 C71.21944381 26.1164248 63.43909594 26.20498161 55.6578846 26.25906086 C52.04374299 26.28503134 48.43020218 26.32019409 44.81640625 26.37719727 C41.32150338 26.431973 37.82717422 26.46151462 34.33187485 26.47438622 C32.36551721 26.48796899 30.39938682 26.5269284 28.43338013 26.56648254 C19.33859896 26.56929669 12.26006585 25.05143704 5.52734375 18.6484375 C5.00269531 17.89820313 4.47804688 17.14796875 3.9375 16.375 C3.38964844 15.61960937 2.84179688 14.86421875 2.27734375 14.0859375 C0.23788024 10.75543745 -0.1178365 8.13071832 -0.0625 4.3125 C-0.05347656 3.50425781 -0.04445313 2.69601562 -0.03515625 1.86328125 C-0.02355469 1.24839844 -0.01195312 0.63351562 0 0 Z " fill="#488BFF" transform="translate(384,471)"/>
<path d="M0 0 C1.65148544 0.0001133 1.65148544 0.0001133 3.33633423 0.00022888 C4.52906952 0.00539017 5.72180481 0.01055145 6.95068359 0.01586914 C8.16863617 0.01728409 9.38658875 0.01869904 10.64144897 0.02015686 C14.54403099 0.025769 18.44655632 0.0383236 22.34912109 0.05102539 C24.98974527 0.05603882 27.63037034 0.060602 30.27099609 0.06469727 C36.75539054 0.07574238 43.23975177 0.09249237 49.72412109 0.11352539 C49.76671739 1.52601864 49.79679906 2.93889202 49.82177734 4.35180664 C49.83990479 5.1385376 49.85803223 5.92526855 49.87670898 6.73583984 C49.51190016 12.42043688 46.51883547 16.67032936 42.41162109 20.42602539 C35.85348916 25.96788507 29.4395949 26.54109845 21.19677734 26.40649414 C19.71340126 26.40012688 19.71340126 26.40012688 18.20005798 26.39363098 C15.061961 26.37692668 11.92452182 26.33928954 8.78662109 26.30102539 C6.6505627 26.2859679 4.51449418 26.27228136 2.37841797 26.26000977 C-2.83990292 26.22705032 -8.0578439 26.17693377 -13.27587891 26.11352539 C-16.04214425 20.75431616 -17.24398516 17.10502744 -16.27587891 11.11352539 C-12.70078578 4.09575 -7.8505621 -0.01792366 0 0 Z " fill="#FFAB60" transform="translate(79.27587890625,470.886474609375)"/>
</svg>
