<?xml version="1.0" encoding="UTF-8"?>
<svg version="1.1" xmlns="http://www.w3.org/2000/svg" width="512" height="512">
<path d="M0 0 C1.91541581 -0.00461239 3.83082808 -0.01096757 5.74623299 -0.01890898 C10.99476045 -0.03557893 16.2429963 -0.02736644 21.4915247 -0.0149641 C27.15759806 -0.00590644 32.82362162 -0.01988692 38.48968506 -0.03088379 C49.58362662 -0.04866589 60.6774599 -0.04483036 71.7714057 -0.03323323 C80.78806287 -0.02419799 89.8046897 -0.0229753 98.8213501 -0.02732849 C100.10487558 -0.02794142 101.38840107 -0.02855436 102.71082127 -0.02918586 C105.31831663 -0.03046477 107.92581198 -0.03176162 110.53330731 -0.03307623 C134.28425756 -0.04415604 158.03514224 -0.03266781 181.78608206 -0.01170584 C203.45816835 0.00727596 225.13016062 0.00557742 246.80224609 -0.0135498 C271.16286163 -0.0349781 295.5234132 -0.0433825 319.88403893 -0.03110075 C322.48191706 -0.02982656 325.07979519 -0.02856908 327.67767334 -0.02732849 C329.59495859 -0.02640284 329.59495859 -0.02640284 331.55097687 -0.02545848 C340.55631595 -0.02200547 349.56162166 -0.02783292 358.56695557 -0.0372467 C369.54215057 -0.04846755 380.51723114 -0.04542471 391.49241304 -0.02412373 C397.0916222 -0.0136146 402.6906406 -0.00948934 408.28984833 -0.02272034 C413.41701119 -0.03465261 418.54380673 -0.02806759 423.67093635 -0.00681013 C425.52409686 -0.00234766 427.37728849 -0.00460234 429.23042893 -0.01431328 C441.49927969 -0.07366576 452.10593054 0.46074336 461.44091189 9.35837996 C468.54109183 17.79707616 470.12728072 26.49976966 469.99795532 37.22195435 C470.00344936 38.56575696 470.01156449 39.90955092 470.02204263 41.25332391 C470.04304784 44.91276145 470.02707149 48.57120992 470.00454164 52.23060322 C469.98675308 56.18976182 470.0037744 60.1487982 470.01626587 64.10795593 C470.03518463 71.85021643 470.0220935 79.59210253 469.99773999 87.3343351 C469.97041797 96.3583326 469.97378283 105.3822422 469.97800665 114.40627055 C469.98437787 130.51054767 469.961099 146.61464751 469.921875 162.71887207 C469.88385763 178.33188269 469.86970425 193.94468566 469.88085938 209.55773926 C469.89298425 226.57832015 469.89260481 243.59880988 469.86988771 260.61938322 C469.86747323 262.4353462 469.86506126 264.25130919 469.86265182 266.06727219 C469.86084121 267.40735548 469.86084121 267.40735548 469.85899401 268.77451117 C469.85124733 275.05926537 469.85201838 281.34398555 469.85582352 287.62874222 C469.86007456 295.28999277 469.84956514 302.95106182 469.82059641 310.61226131 C469.80614348 314.51837808 469.79792414 318.42423098 469.80708313 322.33036995 C469.81527352 325.91057444 469.8048007 329.49023562 469.77983098 333.07035796 C469.77125989 334.96915979 469.78211484 336.86801918 469.79380953 338.76680434 C469.70652979 347.33147082 468.04989571 353.94434585 463.56201172 361.25793457 C452.79698292 371.73201664 441.3481479 372.95294584 426.98950195 372.84851074 C425.35272741 372.84766339 423.71595174 372.84814171 422.07917786 372.84983826 C417.65826303 372.85069543 413.23759472 372.83311485 408.81673694 372.81211638 C404.18830808 372.79330312 399.55987294 372.79159549 394.93141174 372.78804016 C386.17683013 372.77873332 377.42236153 372.75413803 368.66782957 372.72399169 C358.69684709 372.69040523 348.72585907 372.67395101 338.75483406 372.65890539 C318.25299698 372.62758722 297.75126148 372.57485329 277.24951172 372.50793457 C277.56157562 373.73347046 277.87363953 374.95900635 278.19515991 376.22167969 C278.93075985 379.16626507 279.60132312 382.09617819 280.11914062 385.0880127 C280.25913483 385.88823853 280.39912903 386.68846436 280.54336548 387.51293945 C280.68615936 388.34660034 280.82895325 389.18026123 280.97607422 390.03918457 C281.12861664 390.91570679 281.28115906 391.792229 281.43832397 392.6953125 C281.91981468 395.46571595 282.39722921 398.23680338 282.87451172 401.00793457 C283.20236641 402.89860646 283.53048881 404.78923196 283.85888672 406.67980957 C284.65885707 411.28865401 285.4551752 415.89811594 286.24951172 420.50793457 C286.87929932 420.52251709 287.50908691 420.53709961 288.15795898 420.55212402 C291.04322493 420.62712451 293.92739895 420.72361096 296.81201172 420.82043457 C297.80265625 420.84299316 298.79330078 420.86555176 299.81396484 420.88879395 C307.25601268 421.16076247 312.45682447 421.95808969 318.12451172 427.13293457 C320.766601 431.32919402 321.55019391 434.57674661 321.24951172 439.50793457 C319.56654675 444.91113788 317.33075589 448.46421201 312.60803699 451.59668922 C309.25136065 452.89358255 305.99747418 452.79023701 302.4506073 452.77536011 C301.6599194 452.77989122 300.86923151 452.78442233 300.05458337 452.78909075 C297.40229648 452.80176172 294.75021422 452.80011265 292.09790039 452.79846191 C290.19735957 452.80444552 288.29682119 452.81125067 286.39628601 452.81881714 C281.23091538 452.83650232 276.06561098 452.8411736 270.900213 452.84244871 C266.58862046 452.84434709 262.27704338 452.85170399 257.96545678 452.8587929 C247.7924743 452.87508434 237.61952723 452.8799612 227.4465332 452.87854004 C216.95258329 452.87733867 206.45883907 452.89843793 195.9649412 452.93002737 C186.95589867 452.9561806 177.94692335 452.96690772 168.93784314 452.96562922 C163.55694529 452.96511927 158.17623015 452.97082067 152.7953701 452.99198532 C147.73345583 453.01135134 142.67189888 453.01150327 137.609972 452.99695206 C135.75362501 452.99486077 133.89725576 452.99958385 132.04094696 453.01167297 C129.50333431 453.02712669 126.96695349 453.01781706 124.42936707 453.00241089 C123.69764147 453.01269801 122.96591586 453.02298514 122.21201676 453.033584 C116.72205187 452.96011073 113.68223762 451.51329736 109.24951172 448.50793457 C105.78123611 444.46161303 105.11525583 439.71706297 105.24951172 434.50793457 C106.91548667 428.62802298 109.37536459 425.88999584 114.24951172 422.50793457 C117.30768694 421.50334562 120.24750104 421.32196989 123.45263672 421.19152832 C124.43232422 421.14963379 125.41201172 421.10773926 126.42138672 421.0645752 C127.43716797 421.02525879 128.45294922 420.98594238 129.49951172 420.94543457 C130.53076172 420.90225098 131.56201172 420.85906738 132.62451172 420.8145752 C135.16605042 420.70867775 137.70768368 420.60660014 140.24951172 420.50793457 C140.34751572 419.93608429 140.44551971 419.36423401 140.54649353 418.77505493 C141.5647066 412.83753662 142.58732994 406.9007901 143.61254883 400.96447754 C143.99487284 398.74722574 144.37606173 396.52977791 144.75610352 394.31213379 C145.3017207 391.12948547 145.85138069 387.94755833 146.40185547 384.76574707 C146.57168442 383.76987579 146.74151337 382.77400452 146.91648865 381.74795532 C147.07657913 380.82715179 147.23666962 379.90634827 147.40161133 378.9576416 C147.54150986 378.14489777 147.68140839 377.33215393 147.82554626 376.49478149 C148.24951172 374.50793457 148.24951172 374.50793457 149.24951172 372.50793457 C147.98144196 372.51346533 147.98144196 372.51346533 146.68775463 372.51910782 C126.08797836 372.607566 105.48823496 372.67369627 84.88830853 372.71518326 C74.92620191 372.73578094 64.96422233 372.763848 55.00219727 372.80969238 C46.31611585 372.84964582 37.63012647 372.87538768 28.94395572 372.88428855 C24.34754305 372.88948892 19.75139359 372.9016531 15.15506554 372.9308548 C10.82205834 372.95815853 6.48942089 372.96634958 2.15633583 372.9603653 C0.57256684 372.96145888 -1.0112155 372.96932334 -2.59490967 372.98475647 C-13.69887757 373.0875877 -24.1220367 372.11579109 -33.18798828 365.05480957 C-38.48053493 359.81518839 -42.32698104 353.17809546 -43.00578928 345.69264209 C-43.00828228 344.71415243 -43.01077527 343.73566276 -43.01334381 342.7275219 C-43.0210261 341.59087243 -43.02870839 340.45422296 -43.03662348 339.28312957 C-43.03489051 338.04423386 -43.03315755 336.80533815 -43.03137207 335.52890015 C-43.03654336 334.19171054 -43.0425708 332.85452401 -43.04937887 331.51734173 C-43.06547881 327.848538 -43.06909576 324.17981262 -43.07057381 320.51097775 C-43.07428195 316.55169525 -43.0893802 312.59245307 -43.10284424 308.63319397 C-43.1299838 299.97806652 -43.14205618 291.32295762 -43.15086555 282.6677947 C-43.1563952 277.26078621 -43.1648708 271.85378484 -43.1738739 266.44678116 C-43.1982561 251.46875139 -43.21885509 236.49072733 -43.22562408 221.51267815 C-43.22606322 220.55443396 -43.22650235 219.59618977 -43.22695479 218.60890789 C-43.22739134 217.6484039 -43.2278279 216.68789992 -43.22827768 215.69828975 C-43.22916461 213.75202552 -43.23005773 211.80576129 -43.23095703 209.85949707 C-43.23139989 208.894088 -43.23184275 207.92867894 -43.23229903 206.93401505 C-43.24019232 191.29665633 -43.27509348 175.65948416 -43.32167608 160.02219747 C-43.36914402 143.95768586 -43.39402965 127.89326778 -43.39635992 111.82868493 C-43.3981912 102.81301277 -43.40963924 93.79758367 -43.44599915 84.78197861 C-43.47685666 77.10379301 -43.48700976 69.42592561 -43.47052294 61.74768977 C-43.46272899 57.8331065 -43.46447282 53.91916343 -43.49263763 50.00465965 C-43.51823455 46.41407815 -43.51562089 42.82461389 -43.49145621 39.23403265 C-43.48573132 37.33437671 -43.50932603 35.43470039 -43.53430033 33.5352 C-43.42801631 24.24282269 -41.00078649 16.5590993 -34.94183588 9.3584851 C-24.86027317 -0.25156168 -13.11176532 -0.06870909 0 0 Z " fill="#E0F8FE" transform="translate(42.75048828125,29.4920654296875)"/>
<path d="M0 0 C168.96 0 337.92 0 512 0 C512 27.48148148 512 27.48148148 506.3125 36.75 C495.5474712 47.22408207 484.09863618 48.44501127 469.73999023 48.34057617 C468.10321569 48.33972882 466.46644002 48.34020714 464.82966614 48.34190369 C460.40875131 48.34276086 455.988083 48.32518028 451.56722522 48.30418181 C446.93879636 48.28536855 442.31036122 48.28366092 437.68190002 48.28010559 C428.92731841 48.27079875 420.17284981 48.24620346 411.41831785 48.21605712 C401.44733537 48.18247066 391.47634735 48.16601644 381.50532234 48.15097082 C361.00348526 48.11965265 340.50174976 48.06691872 320 48 C320.3120639 49.22553589 320.62412781 50.45107178 320.94564819 51.71374512 C321.68124813 54.6583305 322.3518114 57.58824362 322.86962891 60.58007812 C323.00962311 61.38030396 323.14961731 62.18052979 323.29385376 63.00500488 C323.43664764 63.83866577 323.57944153 64.67232666 323.7265625 65.53125 C323.95537613 66.84603333 323.95537613 66.84603333 324.18881226 68.18737793 C324.67030296 70.95778138 325.14771749 73.72886881 325.625 76.5 C325.95285469 78.39067189 326.28097709 80.28129739 326.609375 82.171875 C327.40934535 86.78071944 328.20566348 91.39018137 329 96 C329.6297876 96.01458252 330.2595752 96.02916504 330.90844727 96.04418945 C333.79371321 96.11918994 336.67788723 96.21567639 339.5625 96.3125 C340.55314453 96.33505859 341.54378906 96.35761719 342.56445312 96.38085938 C350.00650096 96.6528279 355.20731275 97.45015512 360.875 102.625 C363.51708929 106.82125945 364.30068219 110.06881204 364 115 C362.31703503 120.40320331 360.08124417 123.95627744 355.35852528 127.08875465 C352.00184893 128.38564798 348.74796246 128.28230244 345.20109558 128.26742554 C344.41040768 128.27195665 343.61971979 128.27648776 342.80507165 128.28115618 C340.15278476 128.29382715 337.5007025 128.29217808 334.84838867 128.29052734 C332.94784785 128.29651095 331.04730947 128.3033161 329.14677429 128.31088257 C323.98140366 128.32856775 318.81609927 128.33323903 313.65070128 128.33451414 C309.33910875 128.33641252 305.02753166 128.34376942 300.71594507 128.35085833 C290.54296258 128.36714977 280.37001551 128.37202663 270.19702148 128.37060547 C259.70307157 128.3694041 249.20932735 128.39050336 238.71542948 128.4220928 C229.70638695 128.44824603 220.69741163 128.45897315 211.68833143 128.45769465 C206.30743357 128.4571847 200.92671843 128.4628861 195.54585838 128.48405075 C190.48394412 128.50341677 185.42238716 128.5035687 180.36046028 128.48901749 C178.50411329 128.4869262 176.64774404 128.49164928 174.79143524 128.5037384 C172.2538226 128.51919212 169.71744177 128.50988249 167.17985535 128.49447632 C166.44812975 128.50476344 165.71640415 128.51505057 164.96250504 128.52564943 C159.47254015 128.45217615 156.4327259 127.00536279 152 124 C148.5317244 119.95367846 147.86574411 115.2091284 148 110 C149.66597495 104.12008841 152.12585288 101.38206127 157 98 C160.05817522 96.99541105 162.99798932 96.81403532 166.203125 96.68359375 C167.1828125 96.64169922 168.1625 96.59980469 169.171875 96.55664062 C170.18765625 96.51732422 171.2034375 96.47800781 172.25 96.4375 C173.28125 96.39431641 174.3125 96.35113281 175.375 96.30664062 C177.9165387 96.20074318 180.45817196 96.09866557 183 96 C183.098004 95.42814972 183.196008 94.85629944 183.29698181 94.26712036 C184.31519488 88.32960205 185.33781822 82.39285553 186.36303711 76.45654297 C186.74536112 74.23929117 187.12655001 72.02184333 187.5065918 69.80419922 C188.05220898 66.6215509 188.60186897 63.43962376 189.15234375 60.2578125 C189.40708717 58.76400558 189.40708717 58.76400558 189.66697693 57.24002075 C189.82706741 56.31921722 189.9871579 55.3984137 190.15209961 54.44970703 C190.29199814 53.6369632 190.43189667 52.82421936 190.57603455 51.98684692 C191 50 191 50 192 48 C191.15462016 48.00368717 190.30924032 48.00737434 189.43824291 48.01117325 C168.83846664 48.09963143 148.23872324 48.1657617 127.63879681 48.20724869 C117.67669019 48.22784637 107.71471061 48.25591343 97.75268555 48.30175781 C89.06660413 48.34171125 80.38061475 48.36745311 71.694444 48.37635398 C67.09803133 48.38155435 62.50188187 48.39371853 57.90555382 48.42292023 C53.57254662 48.45022396 49.23990917 48.45841501 44.90682411 48.45243073 C43.32305512 48.45352431 41.73927279 48.46138877 40.15557861 48.4768219 C29.05161071 48.57965313 18.62845158 47.60785652 9.5625 40.546875 C4.68477949 35.71793169 2.15434805 30.46304415 0 24 C0 16.08 0 8.16 0 0 Z " fill="#2F3A3F" transform="translate(0,354)"/>
<path d="M0 0 C42.24 0 84.48 0 128 0 C130.25 9 130.25 9 130.86962891 12.58007812 C131.00962311 13.38030396 131.14961731 14.18052979 131.29385376 15.00500488 C131.43664764 15.83866577 131.57944153 16.67232666 131.7265625 17.53125 C131.95537613 18.84603333 131.95537613 18.84603333 132.18881226 20.18737793 C132.67030296 22.95778138 133.14771749 25.72886881 133.625 28.5 C133.95285469 30.39067189 134.28097709 32.28129739 134.609375 34.171875 C135.40934535 38.78071944 136.20566348 43.39018137 137 48 C137.6297876 48.01458252 138.2595752 48.02916504 138.90844727 48.04418945 C141.79371321 48.11918994 144.67788723 48.21567639 147.5625 48.3125 C148.55314453 48.33505859 149.54378906 48.35761719 150.56445312 48.38085938 C158.00650096 48.6528279 163.20731275 49.45015512 168.875 54.625 C171.51708929 58.82125945 172.30068219 62.06881204 172 67 C170.31703503 72.40320331 168.08124417 75.95627744 163.35852528 79.08875465 C160.00184893 80.38564798 156.74796246 80.28230244 153.20109558 80.26742554 C152.41040768 80.27195665 151.61971979 80.27648776 150.80507165 80.28115618 C148.15278476 80.29382715 145.5007025 80.29217808 142.84838867 80.29052734 C140.94784785 80.29651095 139.04730947 80.3033161 137.14677429 80.31088257 C131.98140366 80.32856775 126.81609927 80.33323903 121.65070128 80.33451414 C117.33910875 80.33641252 113.02753166 80.34376942 108.71594507 80.35085833 C98.54296258 80.36714977 88.37001551 80.37202663 78.19702148 80.37060547 C67.70307157 80.3694041 57.20932735 80.39050336 46.71542948 80.4220928 C37.70638695 80.44824603 28.69741163 80.45897315 19.68833143 80.45769465 C14.30743357 80.4571847 8.92671843 80.4628861 3.54585838 80.48405075 C-1.51605588 80.50341677 -6.57761284 80.5035687 -11.63953972 80.48901749 C-13.49588671 80.4869262 -15.35225596 80.49164928 -17.20856476 80.5037384 C-19.7461774 80.51919212 -22.28255823 80.50988249 -24.82014465 80.49447632 C-25.91773305 80.50990701 -25.91773305 80.50990701 -27.03749496 80.52564943 C-32.52745985 80.45217615 -35.5672741 79.00536279 -40 76 C-43.4682756 71.95367846 -44.13425589 67.2091284 -44 62 C-42.33402505 56.12008841 -39.87414712 53.38206127 -35 50 C-31.94182478 48.99541105 -29.00201068 48.81403532 -25.796875 48.68359375 C-24.8171875 48.64169922 -23.8375 48.59980469 -22.828125 48.55664062 C-21.81234375 48.51732422 -20.7965625 48.47800781 -19.75 48.4375 C-18.71875 48.39431641 -17.6875 48.35113281 -16.625 48.30664062 C-14.0834613 48.20074318 -11.54182804 48.09866557 -9 48 C-8.901996 47.42814972 -8.803992 46.85629944 -8.70301819 46.26712036 C-7.68480512 40.32960205 -6.66218178 34.39285553 -5.63696289 28.45654297 C-5.25463888 26.23929117 -4.87344999 24.02184333 -4.4934082 21.80419922 C-3.94779102 18.6215509 -3.39813103 15.43962376 -2.84765625 12.2578125 C-2.6778273 11.26194122 -2.50799835 10.26606995 -2.33302307 9.24002075 C-2.17293259 8.31921722 -2.0128421 7.3984137 -1.84790039 6.44970703 C-1.70800186 5.6369632 -1.56810333 4.82421936 -1.42396545 3.98684692 C-1 2 -1 2 0 0 Z " fill="#AAC2CC" transform="translate(192,402)"/>
<path d="M0 0 C160.05 0 320.1 0 485 0 C483.71812106 7.69127364 480.75757971 12.27134907 474.41796875 16.875 C468.22170982 20.64900251 463.65858118 22.14899361 456.40001392 22.12304783 C455.2222461 22.1247786 455.2222461 22.1247786 454.02068499 22.12654433 C451.36775773 22.1292087 448.71489016 22.12469027 446.06196594 22.12025452 C444.14959406 22.12069025 442.23722224 22.12156521 440.32485074 22.12284368 C435.05269254 22.12508813 429.78055452 22.12106802 424.50839889 22.11606562 C418.82946196 22.1117606 413.15052624 22.11320758 407.47158813 22.1139679 C397.62675518 22.1144931 387.78192884 22.11134668 377.93709755 22.10573006 C363.70299656 22.09761455 349.46889877 22.09499978 335.23479571 22.09374207 C312.14277524 22.09155163 289.05075873 22.08490032 265.95874023 22.07543945 C243.5225425 22.06625787 221.08634572 22.05917286 198.65014648 22.05493164 C197.95879318 22.05480011 197.26743987 22.05466859 196.55513646 22.05453308 C189.61240116 22.05321458 182.66966585 22.05193876 175.72693054 22.05069422 C117.48461799 22.0402498 59.24230906 22.02260046 1 22 C0.67 22.66 0.34 23.32 0 24 C0 16.08 0 8.16 0 0 Z " fill="#4A555B" transform="translate(0,354)"/>
<path d="M0 0 C4.29143157 -0.11742499 8.58244273 -0.18765996 12.875 -0.25 C14.68097656 -0.30027344 14.68097656 -0.30027344 16.5234375 -0.3515625 C26.82880175 -0.46357733 35.48191804 1.37714241 43.0560106 8.76054025 C50.07017943 16.84080489 51.88158181 25.46705448 51.7215271 35.87017822 C51.72666321 37.10661575 51.73179932 38.34305328 51.73709106 39.61695862 C51.74523755 43.02109473 51.7266449 46.42312066 51.69643638 49.82700044 C51.67006732 53.56421358 51.67901506 57.30138115 51.68334389 61.03866196 C51.68652239 68.27969709 51.65893144 75.52028256 51.62033591 82.76120244 C51.57699839 91.14406773 51.57236 99.52666608 51.56762695 107.90966797 C51.53617304 130.02318283 51.45240581 152.13659825 51.375 174.25 C51.25125 223.6675 51.1275 273.085 51 324 C-117.96 324 -286.92 324 -461 324 C-461 323.67 -461 323.34 -461 323 C-300.62 322.67 -140.24 322.34 25 322 C25.0825 273.20125 25.165 224.4025 25.25 174.125 C25.28641602 158.71055176 25.32283203 143.29610352 25.36035156 127.41455078 C25.37372841 113.61009395 25.37372841 113.61009395 25.3817749 99.80563354 C25.38550498 93.65184418 25.40017728 87.49820008 25.42230225 81.3444519 C25.44778943 74.24503637 25.45933776 67.14576017 25.4537798 60.04629856 C25.45137324 56.41567767 25.45515094 52.78536806 25.47686052 49.15480447 C25.49999411 45.26235734 25.49195691 41.370322 25.48101807 37.47781372 C25.49266872 36.35165586 25.50431938 35.22549801 25.51632309 34.06521416 C25.44077115 24.05797355 22.84270431 16.03395362 15.92578125 8.6875 C11.32996952 4.6603384 5.79125798 2.73737739 0 1 C0 0.67 0 0.34 0 0 Z " fill="#C3E8EF" transform="translate(461,30)"/>
<path d="M0 0 C3.68836336 0.08148343 7.37514597 0.19427268 11.0625 0.3125 C12.10083984 0.33505859 13.13917969 0.35761719 14.20898438 0.38085938 C21.8015048 0.64599501 27.09244468 1.34527558 32.875 6.625 C35.51708929 10.82125945 36.30068219 14.06881204 36 19 C34.31703503 24.40320331 32.08124417 27.95627744 27.35852528 31.08875465 C24.00184893 32.38564798 20.74796246 32.28230244 17.20109558 32.26742554 C16.41040768 32.27195665 15.61971979 32.27648776 14.80507165 32.28115618 C12.15278476 32.29382715 9.5007025 32.29217808 6.84838867 32.29052734 C4.94784785 32.29651095 3.04730947 32.3033161 1.14677429 32.31088257 C-4.01859634 32.32856775 -9.18390073 32.33323903 -14.34929872 32.33451414 C-18.66089125 32.33641252 -22.97246834 32.34376942 -27.28405493 32.35085833 C-37.45703742 32.36714977 -47.62998449 32.37202663 -57.80297852 32.37060547 C-68.29692843 32.3694041 -78.79067265 32.39050336 -89.28457052 32.4220928 C-98.29361305 32.44824603 -107.30258837 32.45897315 -116.31166857 32.45769465 C-121.69256643 32.4571847 -127.07328157 32.4628861 -132.45414162 32.48405075 C-137.51605588 32.50341677 -142.57761284 32.5035687 -147.63953972 32.48901749 C-149.49588671 32.4869262 -151.35225596 32.49164928 -153.20856476 32.5037384 C-155.7461774 32.51919212 -158.28255823 32.50988249 -160.82014465 32.49447632 C-161.55187025 32.50476344 -162.28359585 32.51505057 -163.03749496 32.52564943 C-168.52745985 32.45217615 -171.5672741 31.00536279 -176 28 C-179.4682756 23.95367846 -180.13425589 19.2091284 -180 14 C-178.33402505 8.12008841 -175.87414712 5.38206127 -171 2 C-167.43372185 0.73182818 -163.93411028 0.89233709 -160.17901611 0.91770935 C-159.1509597 0.92255304 -159.1509597 0.92255304 -158.10213447 0.92749459 C-155.80663936 0.93955411 -153.51126475 0.95893012 -151.21582031 0.97827148 C-149.56993368 0.98841593 -147.92404422 0.99810942 -146.27815247 1.00738525 C-141.80948459 1.03384969 -137.34088262 1.06663261 -132.87226582 1.10053515 C-128.20244453 1.13489454 -123.53258795 1.16346355 -118.86273193 1.19264221 C-110.01946733 1.24877977 -101.17624692 1.31013793 -92.33303046 1.37336355 C-82.26544055 1.44508939 -72.19781525 1.51100774 -62.13018274 1.57643402 C-41.42007586 1.71115261 -20.71002438 1.85317816 0 2 C0 1.34 0 0.68 0 0 Z " fill="#C2E7EE" transform="translate(328,450)"/>
<path d="M0 0 C0.89432739 -0.00630432 1.78865479 -0.01260864 2.71008301 -0.019104 C4.16166809 -0.01303131 4.16166809 -0.01303131 5.64257812 -0.00683594 C6.6338269 -0.00874939 7.62507568 -0.01066284 8.6463623 -0.01263428 C10.7445501 -0.01399679 12.84274631 -0.01029576 14.94091797 -0.00195312 C18.16067358 0.00874535 21.37987121 -0.0018463 24.59960938 -0.01464844 C26.63476686 -0.01332685 28.669924 -0.01076449 30.70507812 -0.00683594 C31.67280151 -0.0108844 32.6405249 -0.01493286 33.63757324 -0.019104 C34.53190063 -0.01279968 35.42622803 -0.00649536 36.34765625 0 C37.13660278 0.00159119 37.92554932 0.00318237 38.73840332 0.00482178 C40.67382812 0.25878906 40.67382812 0.25878906 42.67382812 2.25878906 C42.92551041 4.10509396 42.92551041 4.10509396 42.92779541 6.38938904 C42.93343506 7.25446075 42.93907471 8.11953247 42.94488525 9.01081848 C42.94083679 9.96204086 42.93678833 10.91326324 42.93261719 11.89331055 C42.93612183 12.89340149 42.93962646 13.89349243 42.9432373 14.92388916 C42.95206765 18.24262352 42.94620038 21.56114613 42.93945312 24.87988281 C42.94079951 27.17912334 42.94273981 29.4783636 42.94525146 31.77760315 C42.94820459 36.60216984 42.94389942 41.42666259 42.93457031 46.2512207 C42.92318212 52.44334781 42.92973013 58.63530143 42.94171524 64.82742214 C42.9489342 69.57739067 42.94664562 74.32731792 42.94145966 79.07728767 C42.94012293 81.36070844 42.94177167 83.64413293 42.94641876 85.92754936 C42.95148382 89.11675856 42.94377358 92.30568497 42.93261719 95.49487305 C42.93666565 96.4440712 42.94071411 97.39326935 42.94488525 98.37123108 C42.93642578 99.67306839 42.93642578 99.67306839 42.92779541 101.00120544 C42.92704136 101.75539985 42.92628731 102.50959425 42.92551041 103.28664303 C42.67382812 105.25878906 42.67382812 105.25878906 40.67382812 108.25878906 C38.73840332 108.63973999 38.73840332 108.63973999 36.34765625 108.64697266 C35.45332886 108.65642914 34.55900146 108.66588562 33.63757324 108.67562866 C32.66984985 108.66955597 31.70212646 108.66348328 30.70507812 108.65722656 C29.71382935 108.66009674 28.72258057 108.66296692 27.70129395 108.66592407 C25.60310292 108.66796785 23.50489298 108.66241619 21.40673828 108.64990234 C18.18674296 108.63385343 14.96800294 108.6497408 11.74804688 108.66894531 C9.71288784 108.66696294 7.67772959 108.66311938 5.64257812 108.65722656 C4.67485474 108.66329926 3.70713135 108.66937195 2.71008301 108.67562866 C1.81575562 108.66617218 0.92142822 108.6567157 0 108.64697266 C-1.1834198 108.64339249 -1.1834198 108.64339249 -2.39074707 108.63973999 C-3.02943726 108.51402618 -3.66812744 108.38831238 -4.32617188 108.25878906 C-6.39257362 105.15918644 -6.57663297 104.50805969 -6.58013916 101.00120544 C-6.58577881 100.1333139 -6.59141846 99.26542236 -6.597229 98.37123108 C-6.59318054 97.42203293 -6.58913208 96.47283478 -6.58496094 95.49487305 C-6.58846558 94.49302979 -6.59197021 93.49118652 -6.59558105 92.45898438 C-6.604398 89.14088046 -6.59854972 85.82298898 -6.59179688 82.50488281 C-6.59314343 80.20467589 -6.59508388 77.90446925 -6.59759521 75.60426331 C-6.60054634 70.78147677 -6.59624875 65.95876427 -6.58691406 61.13598633 C-6.57551319 54.94266851 -6.58208317 48.7495239 -6.59405899 42.55621243 C-6.60127241 37.80628647 -6.59899216 33.05640186 -6.59380341 28.30647469 C-6.5924658 26.0222274 -6.59411846 23.7379764 -6.59876251 21.45373344 C-6.6038199 18.26682406 -6.59612881 15.08019868 -6.58496094 11.89331055 C-6.5890094 10.94208817 -6.59305786 9.99086578 -6.597229 9.01081848 C-6.59158936 8.14574677 -6.58594971 7.28067505 -6.58013916 6.38938904 C-6.57938511 5.63557166 -6.57863106 4.88175428 -6.57785416 4.10509396 C-6.02502105 0.04959005 -3.46659051 0.00699159 0 0 Z " fill="#2CDDDD" transform="translate(422.326171875,86.7412109375)"/>
<path d="M0 0 C4.42080109 1.16336871 5.00111812 2.21144271 7.5625 5.9375 C9.26084156 8.96420381 10.7990281 12.06078662 12.328125 15.17578125 C12.76638611 16.05654831 13.20464722 16.93731537 13.65618896 17.84477234 C15.04731059 20.64373624 16.43000462 23.44676694 17.8125 26.25 C18.75725831 28.15457188 19.70256486 30.05887191 20.6484375 31.96289062 C22.95948346 36.61796422 25.2636341 41.27640042 27.5625 45.9375 C28.42004883 45.9468457 29.27759766 45.95619141 30.16113281 45.96582031 C33.35222679 46.00991291 36.54236756 46.07156056 39.73291016 46.14501953 C41.11201651 46.17319099 42.49128318 46.19442472 43.87060547 46.20849609 C45.85672949 46.22997545 47.84249909 46.27873132 49.828125 46.328125 C51.02211914 46.34907227 52.21611328 46.37001953 53.44628906 46.39160156 C57.14599505 47.03971678 58.34899104 47.94732123 60.5625 50.9375 C61.125 54.4375 61.125 54.4375 60.5625 57.9375 C57.71818104 60.98600725 56.0176711 61.87189651 51.86132812 62.47094727 C50.43914055 62.5038644 49.01628509 62.51365032 47.59375 62.50390625 C46.83582153 62.51010483 46.07789307 62.51630341 45.29699707 62.52268982 C43.70012695 62.52976989 42.10318273 62.52664558 40.50634766 62.51391602 C38.06925192 62.50003845 35.63599115 62.53415264 33.19921875 62.57226562 C31.64322823 62.57321684 30.08723293 62.57135786 28.53125 62.56640625 C27.80715942 62.57966446 27.08306885 62.59292267 26.33703613 62.60658264 C22.64009458 62.53886342 20.76347834 62.09010025 17.7956543 59.83666992 C15.37480493 56.69382678 13.54797257 53.49168173 11.86328125 49.921875 C11.38159737 48.9372226 11.38159737 48.9372226 10.8901825 47.93267822 C9.87534442 45.85553421 8.87418611 43.7722127 7.875 41.6875 C6.86362596 39.58930136 5.84930232 37.49270522 4.8276825 35.3994751 C4.19473681 34.1015574 3.56790102 32.80063862 2.9478302 31.496521 C1.43797601 28.09684736 1.43797601 28.09684736 -1.4375 25.9375 C-1.87066277 26.81048737 -1.87066277 26.81048737 -2.31257629 27.70111084 C-5.37472406 33.87035685 -8.44294892 40.03655472 -11.5144043 46.20117188 C-12.6532714 48.48883854 -13.79069033 50.77722684 -14.92651367 53.06640625 C-20.65540506 64.61026163 -26.42491443 76.12615169 -32.57421875 87.453125 C-33.02279739 88.28906189 -33.47137604 89.12499878 -33.93354797 89.98626709 C-34.35210556 90.74651184 -34.77066315 91.50675659 -35.2019043 92.29003906 C-35.5630986 92.95038147 -35.92429291 93.61072388 -36.2964325 94.29107666 C-38.03369115 96.79773221 -39.8457154 97.82848705 -42.8125 98.375 C-46.51052739 97.7586621 -48.21750117 95.79467897 -50.4375 92.9375 C-52.50407429 89.45362177 -54.26657289 85.83767296 -56.03515625 82.1953125 C-56.5512999 81.1535788 -57.06744354 80.11184509 -57.59922791 79.0385437 C-59.24235251 75.71780151 -60.87163447 72.39050064 -62.5 69.0625 C-64.13466656 65.74305477 -65.77217176 62.42503299 -67.41148376 59.10787964 C-68.4287625 57.04711292 -69.44288882 54.98478611 -70.4533844 52.92068481 C-72.46020415 48.8369278 -74.47346332 44.79883587 -76.77905273 40.87451172 C-78.4375 37.9375 -78.4375 37.9375 -78.4375 35.9375 C-79.0975 35.9375 -79.7575 35.9375 -80.4375 35.9375 C-80.67726563 36.74832031 -80.91703125 37.55914062 -81.1640625 38.39453125 C-82.70589971 42.68424397 -84.68716552 46.60006102 -86.8125 50.625 C-87.19921875 51.38361328 -87.5859375 52.14222656 -87.984375 52.92382812 C-88.56058594 54.01920898 -88.56058594 54.01920898 -89.1484375 55.13671875 C-89.49181152 55.79502686 -89.83518555 56.45333496 -90.18896484 57.1315918 C-91.77897925 59.43142295 -92.96746101 60.57911976 -95.4375 61.9375 C-98.13952182 62.25376251 -100.6062749 62.40550363 -103.30859375 62.40625 C-104.44760887 62.41767029 -104.44760887 62.41767029 -105.6096344 62.42932129 C-107.21246052 62.44010565 -108.81535682 62.44298213 -110.41821289 62.43847656 C-112.86399097 62.43750438 -115.30662802 62.47913367 -117.75195312 62.5234375 C-119.31249348 62.52864514 -120.8730447 62.53133268 -122.43359375 62.53125 C-123.5244352 62.5558429 -123.5244352 62.5558429 -124.63731384 62.58093262 C-128.56436928 62.52777451 -130.28637182 62.05705863 -133.40258789 59.59179688 C-135.4375 56.9375 -135.4375 56.9375 -136 53.875 C-135.29753077 50.20654956 -134.36738968 49.21497053 -131.4375 46.9375 C-128.32128906 46.39160156 -128.32128906 46.39160156 -124.703125 46.328125 C-123.40761719 46.29589844 -122.11210937 46.26367188 -120.77734375 46.23046875 C-119.41406698 46.21572531 -118.05078555 46.20140778 -116.6875 46.1875 C-115.30855624 46.15933186 -113.92964725 46.12940322 -112.55078125 46.09765625 C-109.17962784 46.02693275 -105.8091672 45.97424496 -102.4375 45.9375 C-101.93822998 44.94830566 -101.43895996 43.95911133 -100.92456055 42.93994141 C-99.07065585 39.27199426 -97.20646307 35.60935919 -95.33911133 31.94824219 C-94.53225477 30.36276013 -93.72819787 28.77585008 -92.92700195 27.1875 C-91.77507343 24.905041 -90.61318355 22.62790206 -89.44921875 20.3515625 C-89.09284836 19.64005035 -88.73647797 18.92853821 -88.36930847 18.19546509 C-86.65159903 14.85962945 -85.61830784 13.05803856 -82.4375 10.9375 C-79.5625 10.5 -79.5625 10.5 -76.4375 10.9375 C-71.00992202 15.18875232 -68.57681702 21.05442114 -65.62109375 27.15234375 C-64.81358421 28.78508995 -64.81358421 28.78508995 -63.98976135 30.45082092 C-62.27526494 33.92092559 -60.57440745 37.39748431 -58.875 40.875 C-57.169974 44.34788015 -55.46204147 47.81927367 -53.74952698 51.28846741 C-52.68621195 53.44416101 -51.62751732 55.60214157 -50.57408142 57.76268005 C-48.13224273 62.72852676 -45.66727373 67.43921191 -42.4375 71.9375 C-42.00518066 71.06762451 -41.57286133 70.19774902 -41.12744141 69.30151367 C-33.44237161 53.84658072 -25.75651555 38.40223264 -17.62158203 23.17773438 C-16.29902853 20.6755177 -15.00559554 18.15938685 -13.71484375 15.640625 C-13.26093262 14.76059814 -12.80702148 13.88057129 -12.33935547 12.97387695 C-11.46915986 11.28535485 -10.60457239 9.59392649 -9.74658203 7.89916992 C-9.35712402 7.14740479 -8.96766602 6.39563965 -8.56640625 5.62109375 C-8.05702515 4.62420532 -8.05702515 4.62420532 -7.53735352 3.60717773 C-5.42039455 0.39344136 -3.74662308 -0.06812042 0 0 Z " fill="#2EDDDD" transform="translate(406.4375,220.0625)"/>
<path d="M0 0 C0.83088638 -0.00938095 1.66177277 -0.0187619 2.51783752 -0.02842712 C3.40647995 -0.01719315 4.29512238 -0.00595917 5.21069336 0.00561523 C6.58988197 0.00343239 6.58988197 0.00343239 7.99693298 0.00120544 C9.93776625 0.00286337 11.87861281 0.01441275 13.81933594 0.03515625 C16.79345355 0.06413995 19.76579183 0.05575748 22.73999023 0.04272461 C24.62606662 0.04896124 26.51213738 0.0573516 28.39819336 0.06811523 C29.28886002 0.0651796 30.17952667 0.06224396 31.09718323 0.05921936 C31.92491745 0.07190353 32.75265167 0.08458771 33.60546875 0.09765625 C34.33286758 0.10305923 35.06026642 0.10846222 35.80970764 0.11402893 C37.73803711 0.50170898 37.73803711 0.50170898 39.47305298 1.52572632 C41.47358737 4.65068352 41.14594723 7.92857274 41.11035156 11.52148438 C41.11400223 12.3380098 41.11765289 13.15453522 41.12141418 13.99580383 C41.1295263 16.69720193 41.11590543 19.39800148 41.10131836 22.09936523 C41.10079988 23.97358703 41.1013171 25.84780938 41.10282898 27.72203064 C41.10273923 31.65038162 41.09230325 35.5785275 41.07421875 39.50683594 C41.05151587 44.55003233 41.05099 49.59292932 41.0577364 54.63616276 C41.06107252 58.50596289 41.0544533 62.37569436 41.04460716 66.24548149 C41.04074988 68.10547972 41.03960913 69.96548558 41.04119301 71.82548714 C41.04156254 74.42091645 41.02897563 77.01595703 41.01269531 79.61132812 C41.01517273 80.38488647 41.01765015 81.15844482 41.02020264 81.95544434 C40.96678024 87.27296585 40.96678024 87.27296585 38.73803711 89.50170898 C36.8473053 89.7624054 36.8473053 89.7624054 34.51953125 89.77636719 C33.6484523 89.7858992 32.77737335 89.79543121 31.87989807 89.80525208 C30.93718552 89.80434067 29.99447296 89.80342926 29.02319336 89.80249023 C28.0565123 89.80677536 27.08983124 89.81106049 26.09385681 89.81547546 C24.04695418 89.8212251 22.00003112 89.82171438 19.953125 89.81738281 C16.81662198 89.81422518 13.68106387 89.8376662 10.54467773 89.86303711 C8.5583508 89.86531022 6.57202133 89.86601354 4.58569336 89.86499023 C3.64500504 89.87419998 2.70431671 89.88340973 1.73512268 89.89289856 C0.86089157 89.88666977 -0.01333954 89.88044098 -0.9140625 89.87402344 C-2.06750404 89.87496758 -2.06750404 89.87496758 -3.24424744 89.87593079 C-5.26196289 89.50170898 -5.26196289 89.50170898 -7.00845337 88.46621704 C-8.96597488 85.39837694 -8.68718591 82.22289963 -8.66601562 78.69726562 C-8.67287888 77.90345993 -8.67974213 77.10965424 -8.68681335 76.29179382 C-8.70513068 73.66496955 -8.70123685 71.03873974 -8.69555664 68.41186523 C-8.70011622 66.5872732 -8.70542112 64.76268289 -8.71144104 62.93809509 C-8.72038193 59.11230497 -8.7179381 55.28672347 -8.70800781 51.4609375 C-8.69651928 46.55675845 -8.71672269 41.65329954 -8.74592495 36.74921513 C-8.76426679 32.98053915 -8.76399849 29.21203636 -8.75828743 25.44332695 C-8.75813395 23.63520739 -8.76419992 21.82707629 -8.7765789 20.0189991 C-8.79144864 17.49072165 -8.78084223 14.9637823 -8.76367188 12.43554688 C-8.77333984 11.68788055 -8.78300781 10.94021423 -8.79296875 10.16989136 C-8.74471453 6.77867981 -8.49371817 4.82531685 -6.49697876 2.03720093 C-4.0516825 0.35724297 -2.92828667 0.00066821 0 0 Z " fill="#FED85D" transform="translate(281.261962890625,105.498291015625)"/>
<path d="M0 0 C0.87107895 -0.00953201 1.7421579 -0.01906403 2.63963318 -0.02888489 C3.58234573 -0.02797348 4.52505829 -0.02706207 5.49633789 -0.02612305 C6.94635948 -0.03255074 6.94635948 -0.03255074 8.42567444 -0.03910828 C10.47257707 -0.04485792 12.51950013 -0.04534719 14.56640625 -0.04101562 C17.70290927 -0.03785799 20.83846738 -0.06129901 23.97485352 -0.08666992 C25.96118045 -0.08894303 27.94750992 -0.08964636 29.93383789 -0.08862305 C31.34487038 -0.10243767 31.34487038 -0.10243767 32.78440857 -0.11653137 C33.65863968 -0.11030258 34.53287079 -0.10407379 35.43359375 -0.09765625 C36.20255478 -0.09828568 36.97151581 -0.0989151 37.76377869 -0.0995636 C39.78149414 0.2746582 39.78149414 0.2746582 41.52996826 1.42964172 C43.31180939 4.05645616 43.15567084 6.00755518 43.15380859 9.16723633 C43.16315178 10.98427063 43.16315178 10.98427063 43.17268372 12.8380127 C43.16347397 14.14741821 43.15426422 15.45682373 43.14477539 16.8059082 C43.14425669 18.16206868 43.14477477 19.51822992 43.14628601 20.87438965 C43.14619632 23.71577183 43.13577377 26.55687009 43.11767578 29.39819336 C43.09498844 33.04007126 43.09444474 36.68153433 43.10119343 40.32346344 C43.10453515 43.123593 43.09789955 45.923628 43.08806419 48.72373962 C43.08234367 50.71958638 43.08364802 52.71544924 43.08503723 54.71130371 C43.07550522 55.92265991 43.06597321 57.13401611 43.05615234 58.38208008 C43.05154495 59.45002808 43.04693756 60.51797607 43.04219055 61.61828613 C42.78149414 64.2746582 42.78149414 64.2746582 40.78149414 67.2746582 C38.84606934 67.65560913 38.84606934 67.65560913 36.45532227 67.6628418 C35.56099487 67.67229828 34.66666748 67.68175476 33.74523926 67.6914978 C32.77751587 67.68542511 31.80979248 67.67935242 30.81274414 67.6730957 C29.82149536 67.67596588 28.83024658 67.67883606 27.80895996 67.68179321 C25.71076894 67.68383699 23.612559 67.67828533 21.5144043 67.66577148 C18.29440898 67.64972257 15.07566896 67.66560994 11.85571289 67.68481445 C9.82055386 67.68283208 7.78539561 67.67898852 5.75024414 67.6730957 C4.78252075 67.6791684 3.81479736 67.68524109 2.81774902 67.6914978 C1.92342163 67.68204132 1.02909424 67.67258484 0.10766602 67.6628418 C-1.07575378 67.65926163 -1.07575378 67.65926163 -2.28308105 67.65560913 C-2.92177124 67.52989532 -3.56046143 67.40418152 -4.21850586 67.2746582 C-6.54630714 63.78295628 -6.471266 62.39955023 -6.47729492 58.27441406 C-6.48359924 57.03980942 -6.48990356 55.80520477 -6.49639893 54.53318787 C-6.49281952 53.18529111 -6.48871766 51.83739566 -6.48413086 50.48950195 C-6.48547803 49.1085249 -6.487419 47.72754831 -6.4899292 46.34657288 C-6.49287704 43.45398437 -6.48859316 40.56151945 -6.47924805 37.66894531 C-6.4678429 33.95748806 -6.47442164 30.24631971 -6.48639297 26.53487301 C-6.4936117 23.68418694 -6.4913238 20.83356966 -6.48613739 17.98288155 C-6.48480147 16.6141106 -6.48644659 15.24533345 -6.4910965 13.87656975 C-6.4961628 11.96621695 -6.48707472 10.0558423 -6.47729492 8.14550781 C-6.47570374 7.05757431 -6.47411255 5.96964081 -6.47247314 4.84873962 C-6.0329452 0.39391107 -3.99583814 0.0239667 0 0 Z " fill="#FE6248" transform="translate(351.218505859375,127.725341796875)"/>
<path d="M0 0 C1.07895098 -0.00935994 1.07895098 -0.00935994 2.17969894 -0.01890898 C4.59051012 -0.03486688 7.0003141 -0.0222246 9.41113281 -0.00964355 C11.13920685 -0.01506346 12.86727627 -0.02218538 14.59533691 -0.03088379 C19.2895488 -0.0491358 23.98340946 -0.0420419 28.67762756 -0.02936745 C33.5871781 -0.01924949 38.4966983 -0.02862977 43.40625 -0.03491211 C51.65142219 -0.04219203 59.89645112 -0.03259177 68.14160156 -0.0135498 C77.67793127 0.00821959 87.21391891 0.00116847 96.75024033 -0.02085543 C104.93378505 -0.03899961 113.11722673 -0.04157256 121.30078506 -0.03110075 C126.19028583 -0.02486042 131.07962574 -0.02404501 135.96911621 -0.0372467 C140.56568944 -0.04879031 145.1618211 -0.04080686 149.75834656 -0.01766968 C151.44662238 -0.01237459 153.13493528 -0.01391002 154.82319641 -0.02272034 C157.12547337 -0.03362844 159.42632957 -0.01997156 161.72851562 0 C163.0175177 0.0015081 164.30651978 0.0030162 165.63458252 0.00457001 C168.86425781 0.50793457 168.86425781 0.50793457 171.2789917 2.32093048 C173.59555307 5.51681611 173.41367387 7.66202214 172.86425781 11.50793457 C171.2789917 13.69493866 171.2789917 13.69493866 168.86425781 15.50793457 C165.63458252 16.01129913 165.63458252 16.01129913 161.72851562 16.01586914 C161.00921497 16.0221091 160.28991432 16.02834907 159.54881668 16.03477812 C157.1380055 16.05073602 154.72820153 16.03809374 152.31738281 16.0255127 C150.58930877 16.0309326 148.86123936 16.03805452 147.13317871 16.04675293 C142.43896683 16.06500494 137.74510617 16.05791104 133.05088806 16.04523659 C128.14133753 16.03511864 123.23181732 16.04449891 118.32226562 16.05078125 C110.07709344 16.05806117 101.83206451 16.04846091 93.58691406 16.02941895 C84.05058436 16.00764955 74.51459671 16.01470067 64.9782753 16.03672457 C56.79473057 16.05486875 48.6112889 16.0574417 40.42773056 16.04696989 C35.5382298 16.04072956 30.64888988 16.03991415 25.75939941 16.05311584 C21.16282619 16.06465945 16.56669452 16.05667601 11.97016907 16.03353882 C10.28189325 16.02824374 8.59358035 16.02977916 6.90531921 16.03858948 C4.60304225 16.04949758 2.30218606 16.0358407 0 16.01586914 C-1.28900208 16.01436104 -2.57800415 16.01285294 -3.90606689 16.01129913 C-7.13574219 15.50793457 -7.13574219 15.50793457 -9.55047607 13.69493866 C-11.86703744 10.49905303 -11.68515825 8.353847 -11.13574219 4.50793457 C-7.94776532 0.10986009 -5.2579413 0.00615167 0 0 Z " fill="#AAC2CC" transform="translate(56.1357421875,247.4920654296875)"/>
<path d="M0 0 C0.71930065 -0.00538554 1.4386013 -0.01077108 2.17969894 -0.01631981 C4.59035084 -0.03062934 7.00045595 -0.02348855 9.41113281 -0.01637268 C11.13920535 -0.02207465 12.86727411 -0.02903824 14.59533691 -0.03717041 C19.28948797 -0.0551349 23.98345244 -0.05392741 28.67762756 -0.04822803 C32.59434231 -0.0451413 36.51102095 -0.05122278 40.42773056 -0.05726677 C49.66571802 -0.07132084 58.90361301 -0.06974303 68.14160156 -0.05836487 C77.67792052 -0.04687896 87.21395841 -0.06096525 96.75024033 -0.08776134 C104.93377542 -0.10989695 113.11722215 -0.11656067 121.30078506 -0.11068493 C126.19029724 -0.10730947 131.07962916 -0.10976954 135.96911621 -0.12693596 C140.56567106 -0.14236928 145.16180842 -0.13848994 149.75834656 -0.11963081 C151.44662901 -0.11593506 153.13494216 -0.11908202 154.82319641 -0.1295166 C157.12545488 -0.14266141 159.42631789 -0.13123881 161.72851562 -0.11352539 C163.66201874 -0.11321146 163.66201874 -0.11321146 165.63458252 -0.1128912 C168.86425781 0.38768005 168.86425781 0.38768005 171.27508545 2.20025539 C172.86425781 4.38768005 172.86425781 4.38768005 173.42675781 7.88768005 C172.86425781 11.38768005 172.86425781 11.38768005 170.78022861 13.57468414 C167.14070963 15.83754392 164.91714043 15.89058538 160.64622498 15.89561462 C159.93015345 15.90185459 159.21408193 15.90809455 158.47631127 15.9145236 C156.0824217 15.9304492 153.689551 15.91785194 151.2956543 15.90525818 C149.57728482 15.91067947 147.85891999 15.91780217 146.14056396 15.92649841 C141.47740111 15.94473254 136.81459226 15.93766426 132.15142322 15.92498207 C127.27257504 15.91485651 122.3937572 15.92424637 117.51490784 15.93052673 C109.32279007 15.93780374 101.13081657 15.92821331 92.9387207 15.90916443 C83.46428547 15.88738833 73.99019443 15.89445219 64.51576751 15.91647005 C56.38315743 15.93461387 48.25065105 15.93718758 40.11802727 15.92671537 C35.25984017 15.92047577 30.40181496 15.91965777 25.54363823 15.93286133 C20.97741937 15.94440467 16.41164501 15.93642201 11.84547424 15.9132843 C10.16848553 15.90798939 8.49145948 15.90952436 6.81448555 15.91833496 C4.52758548 15.92924356 2.24211558 15.91558575 -0.04469299 15.89561462 C-1.96518636 15.89335247 -1.96518636 15.89335247 -3.92447758 15.89104462 C-7.6859516 15.30143493 -8.86373219 14.38192461 -11.13574219 11.38768005 C-11.90819186 8.42851624 -11.53354361 6.52036627 -11.13574219 3.38768005 C-7.8557452 -0.17494445 -4.6587408 0.00878218 0 0 Z " fill="#AAC2CC" transform="translate(56.1357421875,168.61231994628906)"/>
<path d="M0 0 C1.0717673 -0.00935994 1.0717673 -0.00935994 2.16518646 -0.01890898 C4.55984641 -0.03486624 6.95349227 -0.02222482 9.34815979 -0.00964355 C11.06475926 -0.01506354 12.78135408 -0.0221855 14.49794006 -0.03088379 C19.1612291 -0.04913625 23.82416459 -0.04204136 28.4874599 -0.02936745 C33.36584608 -0.01924809 38.24420176 -0.02863031 43.12258911 -0.03491211 C51.31648702 -0.04219231 59.51024079 -0.03259176 67.70411682 -0.0135498 C77.17794334 0.00821239 86.65142545 0.00117382 96.1252436 -0.02085543 C104.2569999 -0.03900747 112.38865251 -0.04156849 120.52042252 -0.03110075 C125.37809746 -0.02486381 130.23561053 -0.02403556 135.09327507 -0.0372467 C139.6611251 -0.04880147 144.22853124 -0.04078637 148.79633331 -0.01766968 C150.47290116 -0.01238027 152.14950635 -0.01390036 153.82605934 -0.02272034 C156.11484991 -0.03365099 158.40221806 -0.0199441 160.69091797 0 C161.97162391 0.0015081 163.25232985 0.0030162 164.57184505 0.00457001 C168.50737986 0.59820081 170.17856389 1.64799589 172.90895081 4.50793457 C173.53395081 8.00793457 173.53395081 8.00793457 172.90895081 11.50793457 C170.17856389 14.36787325 168.50737986 15.41766833 164.57184505 16.01129913 C163.29113912 16.01280724 162.01043318 16.01431534 160.69091797 16.01586914 C159.97484644 16.0221091 159.25877492 16.02834907 158.52100426 16.03477812 C156.12711469 16.05070372 153.73424399 16.03810646 151.34034729 16.0255127 C149.62197781 16.03093399 147.90361298 16.03805669 146.18525696 16.04675293 C141.5220941 16.06498706 136.85928525 16.05791877 132.19611621 16.04523659 C127.31726803 16.03511102 122.4384502 16.04450088 117.55960083 16.05078125 C109.36748307 16.05805825 101.17550956 16.04846783 92.9834137 16.02941895 C83.50897846 16.00764284 74.03488743 16.01470671 64.56046051 16.03672457 C56.42785043 16.05486839 48.29534404 16.0574421 40.16272026 16.04696989 C35.30453317 16.04073029 30.44650795 16.03991228 25.58833122 16.05311584 C21.02211236 16.06465918 16.45633801 16.05667653 11.89016724 16.03353882 C10.21317852 16.0282439 8.53615247 16.02977888 6.85917854 16.03858948 C4.57227847 16.04949808 2.28680857 16.03584027 0 16.01586914 C-1.92049337 16.01360699 -1.92049337 16.01360699 -3.87978458 16.01129913 C-7.09104919 15.50793457 -7.09104919 15.50793457 -9.50298977 13.69493866 C-11.82325243 10.49957717 -11.64068502 8.35538537 -11.09104919 4.50793457 C-7.90936118 0.1262568 -5.24437402 0.00617736 0 0 Z " fill="#AAC2CC" transform="translate(56.09104919433594,83.4920654296875)"/>
<path d="M0 0 C1.39836594 -0.01702469 1.39836594 -0.01702469 2.82498169 -0.03439331 C4.34852516 -0.02999741 4.34852516 -0.02999741 5.90284729 -0.0255127 C7.51564575 -0.03821701 7.51564575 -0.03821701 9.161026 -0.05117798 C12.71904798 -0.0745978 16.27663879 -0.07556893 19.83473206 -0.07434082 C22.30568618 -0.08143923 24.77663865 -0.08913775 27.24758911 -0.09741211 C32.42845745 -0.11086831 37.60917338 -0.11242044 42.79005432 -0.10656738 C49.43280064 -0.10066959 56.07481654 -0.13126202 62.71742153 -0.17168427 C67.82092232 -0.19751921 72.92424625 -0.20044247 78.02780342 -0.1967926 C80.47705484 -0.1984877 82.92631409 -0.20816743 85.37550163 -0.22593689 C88.79917836 -0.24804284 92.22136368 -0.23846572 95.64503479 -0.2208252 C97.16554192 -0.24072006 97.16554192 -0.24072006 98.71676636 -0.26101685 C103.39699432 -0.20491399 105.63519566 -0.11951421 109.50308228 2.70629883 C111.33863831 5.39440918 111.33863831 5.39440918 111.40113831 9.01940918 C110.22156957 12.76627457 109.6193304 13.458305 106.33863831 15.39440918 C104.1240921 15.77472591 104.1240921 15.77472591 101.67054749 15.78208923 C100.27001381 15.79694618 100.27001381 15.79694618 98.84118652 15.81210327 C97.31528648 15.8053508 97.31528648 15.8053508 95.75856018 15.79846191 C94.14335228 15.80875679 94.14335228 15.80875679 92.49551392 15.81925964 C88.93267163 15.83757573 85.37026761 15.83368348 81.80738831 15.82800293 C79.33403886 15.83256209 76.86069068 15.83786686 74.38734436 15.84388733 C69.20227412 15.85282767 64.01735783 15.85038431 58.83229065 15.8404541 C52.18051011 15.82895762 45.52946448 15.84918176 38.87772369 15.87837124 C33.76997999 15.89669656 28.66236426 15.89644816 23.55459595 15.89073372 C21.10173803 15.89058009 18.64887167 15.89665888 16.19604492 15.90902519 C12.76992782 15.92386526 9.34480203 15.91330891 5.91871643 15.89611816 C4.39281639 15.91062012 4.39281639 15.91062012 2.83609009 15.92541504 C-4.02827159 15.85311574 -4.02827159 15.85311574 -7.28941345 13.49024963 C-9.65232081 9.88058225 -9.20126443 7.6461432 -8.66136169 3.39440918 C-5.88481588 0.64734042 -3.84812577 0.01774997 0 0 Z " fill="#AAC2CC" transform="translate(53.66136169433594,123.6055908203125)"/>
<path d="M0 0 C0.94072861 -0.00990463 1.88145721 -0.01980927 2.85069275 -0.03001404 C3.88090546 -0.02551239 4.91111816 -0.02101074 5.97254944 -0.01637268 C7.60216866 -0.02666756 7.60216866 -0.02666756 9.26470947 -0.03717041 C12.8654528 -0.05551144 16.46576345 -0.05159035 20.06654358 -0.0459137 C22.5637425 -0.05047202 25.06094016 -0.05577654 27.55813599 -0.0617981 C32.79624896 -0.07074359 38.03424907 -0.06852257 43.27235413 -0.05836487 C49.32607707 -0.04688489 55.37935694 -0.06095533 61.43302149 -0.08776134 C67.25776499 -0.11258749 73.08233598 -0.11509679 78.90712166 -0.10864449 C81.38509928 -0.10849083 83.86308525 -0.11457138 86.34103203 -0.12693596 C89.80317731 -0.14177617 93.26434158 -0.13121911 96.72645569 -0.11402893 C97.75464417 -0.1236969 98.78283264 -0.13336487 99.84217834 -0.14332581 C106.74744636 -0.07135562 106.74744636 -0.07135562 110.04702759 2.20028687 C112.0883197 5.46623122 112.01889368 7.62514052 111.41419983 11.38768005 C109.26732485 13.8919304 107.50584444 15.20447259 104.21211243 15.75724983 C101.41028777 15.91720156 98.63465788 15.9393913 95.82826233 15.92112732 C94.7626709 15.92974289 93.69707947 15.93835846 92.59919739 15.94723511 C89.07895072 15.96992698 85.55949797 15.96315025 82.03919983 15.9540863 C79.59209455 15.95932019 77.1449913 15.9655958 74.69789124 15.97286987 C69.57002771 15.9832799 64.4424416 15.97870328 59.31459045 15.96409607 C52.740221 15.94690219 46.16672499 15.97040907 39.592453 16.00558567 C34.53954771 16.02753458 29.48685224 16.02612425 24.43391418 16.01782036 C22.00979148 16.01699958 19.58565356 16.02388699 17.16157532 16.03859138 C13.77388119 16.0559912 10.38776755 16.04153105 7.00013733 16.01878357 C5.9973877 16.03047577 4.99463806 16.04216797 3.96150208 16.05421448 C-0.69415954 15.9905393 -2.90013926 15.88927477 -6.74742126 13.07479858 C-8.58580017 10.38768005 -8.58580017 10.38768005 -8.58580017 6.76268005 C-7.06373213 1.62570042 -5.36360319 0.01593342 0 0 Z " fill="#ABC3CD" transform="translate(117.58580017089844,208.61231994628906)"/>
<path d="M0 0 C9.9 0 19.8 0 30 0 C31.33085085 5.32340341 32.5462432 10.5513665 33.5078125 15.9375 C33.70333206 17.02405884 33.70333206 17.02405884 33.90280151 18.13256836 C34.17484048 19.65158386 34.44534193 21.17087547 34.71435547 22.69042969 C35.12419248 24.99545831 35.54435753 27.29845597 35.96484375 29.6015625 C36.22980337 31.08842835 36.49414698 32.57540413 36.7578125 34.0625 C36.94526535 35.07848267 36.94526535 35.07848267 37.13650513 36.11499023 C37.97342121 40.9322813 38 44.96809306 38 50 C28.1 50 18.2 50 8 50 C6.85665714 43.6835411 5.71596937 37.36672135 4.58203125 31.04858398 C4.19556991 28.89986541 3.80756151 26.75142449 3.41796875 24.60327148 C2.85789476 21.51357762 2.30341198 18.42292442 1.75 15.33203125 C1.57500977 14.37351761 1.40001953 13.41500397 1.21972656 12.42744446 C1.05956055 11.52688828 0.89939453 10.62633209 0.734375 9.69848633 C0.59225586 8.91016922 0.45013672 8.12185211 0.30371094 7.30964661 C0 5 0 5 0 0 Z " fill="#86A0A8" transform="translate(290,402)"/>
<path d="M0 0 C0.832966 -0.00686325 1.66593201 -0.0137265 2.5241394 -0.02079773 C5.27538128 -0.03908766 8.02605418 -0.03522554 10.77734375 -0.02954102 C12.69018744 -0.03410142 14.60302948 -0.03940657 16.51586914 -0.04542542 C20.52399352 -0.05436056 24.53191868 -0.05192838 28.54003906 -0.04199219 C33.6784663 -0.03049569 38.81620703 -0.05072237 43.95454407 -0.07990932 C47.90421928 -0.09824659 51.85372919 -0.09798392 55.80343628 -0.0922718 C57.69807906 -0.09211832 59.59273286 -0.098185 61.48733521 -0.11056328 C64.13522561 -0.12542677 66.78183736 -0.11483137 69.4296875 -0.09765625 C70.21318573 -0.10732422 70.99668396 -0.11699219 71.80392456 -0.12695312 C75.3019952 -0.07939495 77.33611508 0.12754105 80.19750977 2.21665955 C82.44184276 5.45209668 82.33142664 7.56753696 81.71484375 11.40405273 C78.85532963 14.49498559 77.16137207 15.34367695 72.95825195 15.9119873 C71.47756154 15.9356287 69.99642002 15.9374147 68.515625 15.92163086 C67.7036264 15.92864014 66.89162781 15.93564941 66.05502319 15.94287109 C63.37877915 15.96043411 60.703598 15.94883474 58.02734375 15.93530273 C56.16316526 15.93799814 54.29898814 15.94188097 52.43481445 15.94689941 C48.53095086 15.95279216 44.62745376 15.94423875 40.72363281 15.92553711 C35.72317838 15.90274765 30.72358273 15.91587194 25.72315979 15.93982697 C21.87464952 15.95429101 18.02634237 15.94967618 14.17782593 15.9393158 C12.334258 15.93665019 10.49067154 15.93991244 8.64712524 15.94923401 C6.06894179 15.9594097 3.49214299 15.94388519 0.9140625 15.92163086 C-0.22538315 15.93377625 -0.22538315 15.93377625 -1.3878479 15.94616699 C-5.06888804 15.88739377 -7.12869217 15.50431283 -10.25830078 13.49890137 C-12.28515625 11.40405273 -12.28515625 11.40405273 -12.9140625 9.36889648 C-12.73540844 3.91469324 -12.73540844 3.91469324 -10.76782227 1.68321228 C-7.23626172 -0.13637576 -3.88171887 -0.02230271 0 0 Z " fill="#ABC3CC" transform="translate(57.28515625,287.595947265625)"/>
<path d="M0 0 C3.68836336 0.08148343 7.37514597 0.19427268 11.0625 0.3125 C12.10083984 0.33505859 13.13917969 0.35761719 14.20898438 0.38085938 C21.8015048 0.64599501 27.09244468 1.34527558 32.875 6.625 C35.51708929 10.82125945 36.30068219 14.06881204 36 19 C34.31591704 24.40679266 32.07883339 27.98081196 27.33300781 31.09326172 C24.03522667 32.37496527 21.14030541 32.22333576 17.609375 32.1953125 C16.90476135 32.1924826 16.20014771 32.18965271 15.47418213 32.18673706 C13.2326124 32.17557801 10.99144814 32.15048193 8.75 32.125 C7.22656829 32.11496464 5.70313029 32.10583976 4.1796875 32.09765625 C0.45299414 32.07565291 -3.27346333 32.04115272 -7 32 C-4 30 -4 30 -1.5 28.75 C1.76083118 26.46741817 2.67889406 24.75472214 4 21 C4.69369097 16.27951754 4.45982562 12.95502245 2.375 8.625 C-0.20676605 5.7714691 -2.45995232 4.44820132 -6 3 C-6 2.67 -6 2.34 -6 2 C-4.02 2 -2.04 2 0 2 C0 1.34 0 0.68 0 0 Z " fill="#9ECFD7" transform="translate(328,450)"/>
<path d="M0 0 C0.80610718 -0.00761353 1.61221436 -0.01522705 2.44274902 -0.02307129 C4.14393013 -0.03385754 5.84517738 -0.03673137 7.54638672 -0.03222656 C10.1479315 -0.03125311 12.7465364 -0.07290893 15.34765625 -0.1171875 C17.00259803 -0.12239399 18.65755004 -0.1250827 20.3125 -0.125 C21.47670471 -0.1495929 21.47670471 -0.1495929 22.66442871 -0.17468262 C26.56795908 -0.1247565 28.27585528 0.10449143 31.14257812 2.84960938 C32.87116805 5.84062755 33.41571038 7.09337052 32.65625 10.46875 C29.86904231 14.07740796 28.40384473 15.34487766 23.84741211 16.09985352 C22.37636996 16.12591403 20.90463634 16.12369196 19.43359375 16.09765625 C18.25984947 16.10127419 18.25984947 16.10127419 17.06239319 16.10496521 C15.41418368 16.10398889 13.76594052 16.09064628 12.11791992 16.06567383 C9.59766237 16.03130336 7.08090213 16.04503742 4.56054688 16.06445312 C2.95571428 16.05755572 1.3508907 16.04788428 -0.25390625 16.03515625 C-1.00503189 16.04011612 -1.75615753 16.04507599 -2.53004456 16.05018616 C-6.05221211 15.97099021 -7.99034963 15.74150376 -10.81616211 13.56054688 C-13.40778558 10.01171679 -12.89087495 7.77735896 -12.34375 3.46875 C-8.98040761 -0.35580105 -4.74631631 0.00123172 0 0 Z " fill="#ABC3CD" transform="translate(57.34375,208.53125)"/>
<path d="M0 0 C0.78391113 -0.00524185 1.56782227 -0.0104837 2.37548828 -0.0158844 C4.02961037 -0.02229565 5.6837781 -0.02097918 7.33789062 -0.01245117 C9.86671121 -0.00393417 12.3932771 -0.03272266 14.921875 -0.06445312 C16.53124932 -0.06606514 18.14062764 -0.06548759 19.75 -0.0625 C20.88139404 -0.07935097 20.88139404 -0.07935097 22.03564453 -0.09654236 C25.50900286 -0.0504903 27.5116902 0.16731723 30.34765625 2.24584961 C32.60516316 5.47946845 32.49243223 7.59179323 31.875 11.43359375 C29.03068104 14.482101 27.3301711 15.36799026 23.17382812 15.96704102 C21.75164055 15.99995815 20.32878509 16.00974407 18.90625 16 C18.14832153 16.00619858 17.39039307 16.01239716 16.60949707 16.01878357 C15.01262695 16.02586364 13.41568273 16.02273933 11.81884766 16.01000977 C9.38175192 15.9961322 6.94849115 16.03024639 4.51171875 16.06835938 C2.95572823 16.06931059 1.39973293 16.06745161 -0.15625 16.0625 C-0.88034058 16.07575821 -1.60443115 16.08901642 -2.35046387 16.10267639 C-6.24613452 16.03131693 -8.0020229 15.52858414 -11.11914062 13.12084961 C-13.125 10.43359375 -13.125 10.43359375 -13.1875 6.80859375 C-11.02932859 -0.04677426 -6.50168826 -0.02530498 0 0 Z " fill="#AAC2CC" transform="translate(197.125,123.56640625)"/>
</svg>
